<?xml version="1.0" encoding="UTF-8"?>
<svg xmlns="http://www.w3.org/2000/svg" xmlns:xlink="http://www.w3.org/1999/xlink" width="224.024" height="231.898" viewBox="0 0 224.024 231.898">
<defs>
<g>
<g id="glyph-0-0">
<path d="M 2.25 -3.140625 L 3.921875 -3.140625 C 5.125 -3.140625 6.1875 -3.9375 6.1875 -4.9375 C 6.1875 -5.90625 5.203125 -6.78125 3.84375 -6.78125 L 0.34375 -6.78125 L 0.34375 -6.46875 L 0.578125 -6.46875 C 1.34375 -6.46875 1.375 -6.359375 1.375 -6 L 1.375 -0.78125 C 1.375 -0.421875 1.34375 -0.3125 0.578125 -0.3125 L 0.34375 -0.3125 L 0.34375 0 C 0.6875 -0.03125 1.421875 -0.03125 1.8125 -0.03125 C 2.1875 -0.03125 2.921875 -0.03125 3.28125 0 L 3.28125 -0.3125 L 3.03125 -0.3125 C 2.265625 -0.3125 2.25 -0.421875 2.25 -0.78125 Z M 2.21875 -3.390625 L 2.21875 -6.078125 C 2.21875 -6.40625 2.25 -6.46875 2.703125 -6.46875 L 3.59375 -6.46875 C 5.171875 -6.46875 5.171875 -5.421875 5.171875 -4.9375 C 5.171875 -4.46875 5.171875 -3.390625 3.59375 -3.390625 Z M 2.21875 -3.390625 "/>
</g>
<g id="glyph-0-1">
<path d="M 1.109375 -2.5 C 1.171875 -3.984375 2 -4.234375 2.34375 -4.234375 C 3.359375 -4.234375 3.46875 -2.890625 3.46875 -2.5 Z M 1.09375 -2.296875 L 3.875 -2.296875 C 4.09375 -2.296875 4.125 -2.296875 4.125 -2.5 C 4.125 -3.484375 3.578125 -4.4375 2.34375 -4.4375 C 1.1875 -4.4375 0.28125 -3.421875 0.28125 -2.1875 C 0.28125 -0.859375 1.3125 0.109375 2.453125 0.109375 C 3.671875 0.109375 4.125 -0.984375 4.125 -1.1875 C 4.125 -1.28125 4.03125 -1.296875 3.984375 -1.296875 C 3.90625 -1.296875 3.875 -1.234375 3.859375 -1.15625 C 3.515625 -0.140625 2.625 -0.140625 2.515625 -0.140625 C 2.03125 -0.140625 1.625 -0.4375 1.40625 -0.796875 C 1.09375 -1.28125 1.09375 -1.9375 1.09375 -2.296875 Z M 1.09375 -2.296875 "/>
</g>
<g id="glyph-0-2">
<path d="M 1.09375 -3.40625 L 1.09375 -0.75 C 1.09375 -0.3125 0.984375 -0.3125 0.3125 -0.3125 L 0.3125 0 C 0.671875 -0.015625 1.171875 -0.03125 1.4375 -0.03125 C 1.703125 -0.03125 2.21875 -0.015625 2.546875 0 L 2.546875 -0.3125 C 1.890625 -0.3125 1.78125 -0.3125 1.78125 -0.75 L 1.78125 -2.578125 C 1.78125 -3.609375 2.484375 -4.171875 3.109375 -4.171875 C 3.734375 -4.171875 3.84375 -3.625 3.84375 -3.0625 L 3.84375 -0.75 C 3.84375 -0.3125 3.734375 -0.3125 3.078125 -0.3125 L 3.078125 0 C 3.421875 -0.015625 3.921875 -0.03125 4.203125 -0.03125 C 4.453125 -0.03125 4.96875 -0.015625 5.3125 0 L 5.3125 -0.3125 C 4.796875 -0.3125 4.546875 -0.3125 4.53125 -0.609375 L 4.53125 -2.5 C 4.53125 -3.359375 4.53125 -3.65625 4.234375 -4.015625 C 4.09375 -4.1875 3.765625 -4.390625 3.1875 -4.390625 C 2.453125 -4.390625 2 -3.953125 1.71875 -3.34375 L 1.71875 -4.390625 L 0.3125 -4.28125 L 0.3125 -3.96875 C 1.015625 -3.96875 1.09375 -3.90625 1.09375 -3.40625 Z M 1.09375 -3.40625 "/>
</g>
<g id="glyph-0-3">
<path d="M 3.765625 -0.546875 L 3.765625 0.109375 L 5.234375 0 L 5.234375 -0.3125 C 4.53125 -0.3125 4.453125 -0.375 4.453125 -0.859375 L 4.453125 -6.890625 L 3.03125 -6.78125 L 3.03125 -6.46875 C 3.71875 -6.46875 3.796875 -6.40625 3.796875 -5.90625 L 3.796875 -3.765625 C 3.515625 -4.125 3.078125 -4.390625 2.546875 -4.390625 C 1.375 -4.390625 0.34375 -3.40625 0.34375 -2.140625 C 0.34375 -0.875 1.3125 0.109375 2.4375 0.109375 C 3.078125 0.109375 3.515625 -0.234375 3.765625 -0.546875 Z M 3.765625 -3.203125 L 3.765625 -1.171875 C 3.765625 -0.984375 3.765625 -0.96875 3.65625 -0.796875 C 3.359375 -0.328125 2.921875 -0.109375 2.484375 -0.109375 C 2.046875 -0.109375 1.6875 -0.359375 1.453125 -0.75 C 1.1875 -1.15625 1.15625 -1.71875 1.15625 -2.125 C 1.15625 -2.484375 1.1875 -3.078125 1.46875 -3.53125 C 1.671875 -3.84375 2.046875 -4.171875 2.59375 -4.171875 C 2.9375 -4.171875 3.359375 -4.015625 3.65625 -3.578125 C 3.765625 -3.40625 3.765625 -3.390625 3.765625 -3.203125 Z M 3.765625 -3.203125 "/>
</g>
<g id="glyph-0-4">
<path d="M 1.75 -4.390625 L 0.359375 -4.28125 L 0.359375 -3.96875 C 1.015625 -3.96875 1.09375 -3.90625 1.09375 -3.421875 L 1.09375 -0.75 C 1.09375 -0.3125 0.984375 -0.3125 0.328125 -0.3125 L 0.328125 0 C 0.640625 -0.015625 1.1875 -0.03125 1.421875 -0.03125 C 1.765625 -0.03125 2.109375 -0.015625 2.453125 0 L 2.453125 -0.3125 C 1.796875 -0.3125 1.75 -0.359375 1.75 -0.75 Z M 1.796875 -6.109375 C 1.796875 -6.421875 1.546875 -6.640625 1.265625 -6.640625 C 0.96875 -6.640625 0.75 -6.375 0.75 -6.109375 C 0.75 -5.84375 0.96875 -5.59375 1.265625 -5.59375 C 1.546875 -5.59375 1.796875 -5.796875 1.796875 -6.109375 Z M 1.796875 -6.109375 "/>
</g>
<g id="glyph-0-5">
<path d="M 1.71875 -3.96875 L 3.140625 -3.96875 L 3.140625 -4.28125 L 1.71875 -4.28125 L 1.71875 -6.109375 L 1.46875 -6.109375 C 1.453125 -5.28125 1.15625 -4.234375 0.1875 -4.1875 L 0.1875 -3.96875 L 1.03125 -3.96875 L 1.03125 -1.234375 C 1.03125 -0.015625 1.953125 0.109375 2.3125 0.109375 C 3.015625 0.109375 3.296875 -0.59375 3.296875 -1.234375 L 3.296875 -1.796875 L 3.046875 -1.796875 L 3.046875 -1.25 C 3.046875 -0.515625 2.75 -0.140625 2.375 -0.140625 C 1.71875 -0.140625 1.71875 -1.046875 1.71875 -1.203125 Z M 1.71875 -3.96875 "/>
</g>
<g id="glyph-0-6">
<path d="M 6.8125 -3.25 C 6.96875 -3.25 7.15625 -3.25 7.15625 -3.4375 C 7.15625 -3.640625 6.96875 -3.640625 6.828125 -3.640625 L 0.890625 -3.640625 C 0.75 -3.640625 0.5625 -3.640625 0.5625 -3.4375 C 0.5625 -3.25 0.75 -3.25 0.890625 -3.25 Z M 6.828125 -1.3125 C 6.96875 -1.3125 7.15625 -1.3125 7.15625 -1.515625 C 7.15625 -1.71875 6.96875 -1.71875 6.8125 -1.71875 L 0.890625 -1.71875 C 0.75 -1.71875 0.5625 -1.71875 0.5625 -1.515625 C 0.5625 -1.3125 0.75 -1.3125 0.890625 -1.3125 Z M 6.828125 -1.3125 "/>
</g>
<g id="glyph-1-0">
<path d="M 6.53125 -2.28125 C 6.703125 -2.28125 6.890625 -2.28125 6.890625 -2.484375 C 6.890625 -2.671875 6.703125 -2.671875 6.53125 -2.671875 L 1.171875 -2.671875 C 1 -2.671875 0.828125 -2.671875 0.828125 -2.484375 C 0.828125 -2.28125 1 -2.28125 1.171875 -2.28125 Z M 6.53125 -2.28125 "/>
</g>
<g id="glyph-2-0">
<path d="M 0.453125 1.203125 C 0.359375 1.546875 0.34375 1.625 -0.09375 1.625 C -0.203125 1.625 -0.3125 1.625 -0.3125 1.8125 C -0.3125 1.890625 -0.265625 1.921875 -0.1875 1.921875 C 0.078125 1.921875 0.359375 1.890625 0.640625 1.890625 C 0.96875 1.890625 1.3125 1.921875 1.625 1.921875 C 1.671875 1.921875 1.8125 1.921875 1.8125 1.71875 C 1.8125 1.625 1.703125 1.625 1.5625 1.625 C 1.078125 1.625 1.078125 1.546875 1.078125 1.453125 C 1.078125 1.34375 1.484375 -0.28125 1.5625 -0.53125 C 1.6875 -0.234375 1.96875 0.109375 2.46875 0.109375 C 3.625 0.109375 4.859375 -1.34375 4.859375 -2.796875 C 4.859375 -3.734375 4.296875 -4.390625 3.546875 -4.390625 C 3.046875 -4.390625 2.5625 -4.03125 2.25 -3.640625 C 2.140625 -4.171875 1.71875 -4.390625 1.34375 -4.390625 C 0.890625 -4.390625 0.703125 -4 0.609375 -3.8125 C 0.4375 -3.484375 0.3125 -2.890625 0.3125 -2.859375 C 0.3125 -2.765625 0.40625 -2.765625 0.421875 -2.765625 C 0.53125 -2.765625 0.53125 -2.765625 0.59375 -2.984375 C 0.765625 -3.6875 0.96875 -4.171875 1.3125 -4.171875 C 1.484375 -4.171875 1.625 -4.09375 1.625 -3.703125 C 1.625 -3.484375 1.59375 -3.375 1.5625 -3.203125 Z M 2.1875 -3.09375 C 2.265625 -3.359375 2.53125 -3.640625 2.703125 -3.796875 C 3.0625 -4.09375 3.34375 -4.171875 3.515625 -4.171875 C 3.90625 -4.171875 4.140625 -3.8125 4.140625 -3.234375 C 4.140625 -2.65625 3.8125 -1.515625 3.640625 -1.125 C 3.296875 -0.4375 2.828125 -0.109375 2.453125 -0.109375 C 1.8125 -0.109375 1.671875 -0.9375 1.671875 -0.984375 C 1.671875 -1.015625 1.671875 -1.03125 1.703125 -1.15625 Z M 2.1875 -3.09375 "/>
</g>
<g id="glyph-2-1">
<path d="M 4.828125 -3.78125 C 4.859375 -3.921875 4.859375 -3.9375 4.859375 -4.015625 C 4.859375 -4.1875 4.71875 -4.28125 4.578125 -4.28125 C 4.46875 -4.28125 4.3125 -4.21875 4.234375 -4.0625 C 4.203125 -4.015625 4.125 -3.703125 4.09375 -3.53125 C 4.015625 -3.28125 3.953125 -3 3.890625 -2.734375 L 3.4375 -0.953125 C 3.40625 -0.796875 2.96875 -0.109375 2.328125 -0.109375 C 1.8125 -0.109375 1.703125 -0.546875 1.703125 -0.90625 C 1.703125 -1.375 1.875 -1.984375 2.21875 -2.859375 C 2.375 -3.265625 2.40625 -3.375 2.40625 -3.578125 C 2.40625 -4.015625 2.09375 -4.390625 1.59375 -4.390625 C 0.65625 -4.390625 0.28125 -2.953125 0.28125 -2.859375 C 0.28125 -2.765625 0.390625 -2.765625 0.40625 -2.765625 C 0.5 -2.765625 0.515625 -2.78125 0.5625 -2.9375 C 0.828125 -3.875 1.234375 -4.171875 1.5625 -4.171875 C 1.640625 -4.171875 1.8125 -4.171875 1.8125 -3.84375 C 1.8125 -3.609375 1.71875 -3.34375 1.640625 -3.15625 C 1.25 -2.109375 1.078125 -1.53125 1.078125 -1.078125 C 1.078125 -0.1875 1.703125 0.109375 2.28125 0.109375 C 2.671875 0.109375 3 -0.0625 3.28125 -0.34375 C 3.15625 0.171875 3.03125 0.671875 2.640625 1.1875 C 2.375 1.53125 2 1.8125 1.546875 1.8125 C 1.40625 1.8125 0.96875 1.78125 0.796875 1.40625 C 0.953125 1.40625 1.078125 1.40625 1.21875 1.28125 C 1.3125 1.1875 1.421875 1.0625 1.421875 0.875 C 1.421875 0.5625 1.15625 0.53125 1.046875 0.53125 C 0.828125 0.53125 0.5 0.6875 0.5 1.171875 C 0.5 1.671875 0.9375 2.03125 1.546875 2.03125 C 2.5625 2.03125 3.59375 1.125 3.875 0.015625 Z M 4.828125 -3.78125 "/>
</g>
<g id="glyph-2-2">
<path d="M 3.3125 -3 C 3.375 -3.25 3.609375 -4.171875 4.296875 -4.171875 C 4.34375 -4.171875 4.578125 -4.171875 4.796875 -4.03125 C 4.515625 -3.984375 4.3125 -3.734375 4.3125 -3.5 C 4.3125 -3.34375 4.421875 -3.15625 4.6875 -3.15625 C 4.90625 -3.15625 5.234375 -3.328125 5.234375 -3.734375 C 5.234375 -4.25 4.640625 -4.390625 4.3125 -4.390625 C 3.734375 -4.390625 3.390625 -3.859375 3.265625 -3.625 C 3.015625 -4.28125 2.484375 -4.390625 2.1875 -4.390625 C 1.15625 -4.390625 0.59375 -3.109375 0.59375 -2.859375 C 0.59375 -2.765625 0.6875 -2.765625 0.71875 -2.765625 C 0.796875 -2.765625 0.828125 -2.78125 0.84375 -2.875 C 1.1875 -3.921875 1.828125 -4.171875 2.171875 -4.171875 C 2.359375 -4.171875 2.703125 -4.078125 2.703125 -3.5 C 2.703125 -3.1875 2.546875 -2.53125 2.171875 -1.140625 C 2.015625 -0.53125 1.671875 -0.109375 1.234375 -0.109375 C 1.171875 -0.109375 0.9375 -0.109375 0.734375 -0.234375 C 0.984375 -0.28125 1.203125 -0.5 1.203125 -0.78125 C 1.203125 -1.046875 0.984375 -1.125 0.828125 -1.125 C 0.53125 -1.125 0.28125 -0.859375 0.28125 -0.546875 C 0.28125 -0.09375 0.78125 0.109375 1.21875 0.109375 C 1.875 0.109375 2.234375 -0.578125 2.265625 -0.640625 C 2.375 -0.28125 2.734375 0.109375 3.328125 0.109375 C 4.359375 0.109375 4.921875 -1.171875 4.921875 -1.421875 C 4.921875 -1.515625 4.828125 -1.515625 4.796875 -1.515625 C 4.71875 -1.515625 4.6875 -1.484375 4.671875 -1.40625 C 4.34375 -0.34375 3.671875 -0.109375 3.359375 -0.109375 C 2.96875 -0.109375 2.8125 -0.421875 2.8125 -0.765625 C 2.8125 -0.984375 2.875 -1.203125 2.96875 -1.640625 Z M 3.3125 -3 "/>
</g>
<g id="glyph-2-3">
<path d="M 0.875 -0.578125 C 0.84375 -0.4375 0.78125 -0.203125 0.78125 -0.15625 C 0.78125 0.015625 0.921875 0.109375 1.078125 0.109375 C 1.1875 0.109375 1.375 0.03125 1.4375 -0.171875 C 1.453125 -0.1875 1.5625 -0.65625 1.625 -0.90625 L 1.84375 -1.796875 C 1.90625 -2.015625 1.96875 -2.234375 2.015625 -2.453125 C 2.046875 -2.625 2.140625 -2.921875 2.140625 -2.953125 C 2.296875 -3.265625 2.8125 -4.171875 3.765625 -4.171875 C 4.203125 -4.171875 4.296875 -3.796875 4.296875 -3.46875 C 4.296875 -3.21875 4.234375 -2.953125 4.140625 -2.65625 L 3.875 -1.5 L 3.671875 -0.75 C 3.625 -0.546875 3.546875 -0.203125 3.546875 -0.15625 C 3.546875 0.015625 3.6875 0.109375 3.828125 0.109375 C 4.140625 0.109375 4.203125 -0.140625 4.28125 -0.453125 C 4.421875 -1.015625 4.78125 -2.453125 4.875 -2.84375 C 4.90625 -2.96875 5.421875 -4.171875 6.515625 -4.171875 C 6.9375 -4.171875 7.046875 -3.828125 7.046875 -3.46875 C 7.046875 -2.90625 6.625 -1.78125 6.421875 -1.25 C 6.34375 -1.015625 6.296875 -0.90625 6.296875 -0.703125 C 6.296875 -0.234375 6.640625 0.109375 7.109375 0.109375 C 8.046875 0.109375 8.40625 -1.34375 8.40625 -1.421875 C 8.40625 -1.515625 8.328125 -1.515625 8.296875 -1.515625 C 8.203125 -1.515625 8.203125 -1.484375 8.140625 -1.34375 C 8 -0.8125 7.671875 -0.109375 7.140625 -0.109375 C 6.96875 -0.109375 6.890625 -0.203125 6.890625 -0.4375 C 6.890625 -0.6875 6.984375 -0.921875 7.078125 -1.140625 C 7.265625 -1.65625 7.671875 -2.765625 7.671875 -3.328125 C 7.671875 -3.96875 7.28125 -4.390625 6.53125 -4.390625 C 5.796875 -4.390625 5.28125 -3.953125 4.921875 -3.421875 C 4.90625 -3.546875 4.875 -3.890625 4.609375 -4.125 C 4.359375 -4.328125 4.03125 -4.390625 3.796875 -4.390625 C 2.890625 -4.390625 2.40625 -3.75 2.25 -3.515625 C 2.1875 -4.09375 1.78125 -4.390625 1.328125 -4.390625 C 0.875 -4.390625 0.6875 -4 0.59375 -3.8125 C 0.421875 -3.46875 0.28125 -2.890625 0.28125 -2.859375 C 0.28125 -2.765625 0.390625 -2.765625 0.40625 -2.765625 C 0.5 -2.765625 0.515625 -2.765625 0.578125 -2.984375 C 0.75 -3.6875 0.9375 -4.171875 1.296875 -4.171875 C 1.453125 -4.171875 1.609375 -4.09375 1.609375 -3.703125 C 1.609375 -3.5 1.578125 -3.390625 1.453125 -2.875 Z M 0.875 -0.578125 "/>
</g>
<g id="glyph-3-0">
<path d="M 1.734375 -0.734375 C 1.65625 -0.5 1.421875 -0.125 1.078125 -0.125 C 1.046875 -0.125 0.84375 -0.125 0.703125 -0.21875 C 0.984375 -0.3125 1 -0.5625 1 -0.609375 C 1 -0.75 0.890625 -0.859375 0.734375 -0.859375 C 0.53125 -0.859375 0.328125 -0.6875 0.328125 -0.4375 C 0.328125 -0.09375 0.71875 0.0625 1.0625 0.0625 C 1.375 0.0625 1.671875 -0.125 1.84375 -0.421875 C 2 -0.0625 2.390625 0.0625 2.65625 0.0625 C 3.46875 0.0625 3.890625 -0.796875 3.890625 -0.984375 C 3.890625 -1.078125 3.796875 -1.078125 3.78125 -1.078125 C 3.671875 -1.078125 3.671875 -1.046875 3.640625 -0.96875 C 3.5 -0.484375 3.078125 -0.125 2.6875 -0.125 C 2.421875 -0.125 2.265625 -0.3125 2.265625 -0.578125 C 2.265625 -0.75 2.4375 -1.390625 2.625 -2.15625 C 2.765625 -2.6875 3.078125 -2.859375 3.3125 -2.859375 C 3.328125 -2.859375 3.53125 -2.859375 3.6875 -2.765625 C 3.46875 -2.703125 3.375 -2.515625 3.375 -2.390625 C 3.375 -2.234375 3.5 -2.125 3.65625 -2.125 C 3.8125 -2.125 4.046875 -2.265625 4.046875 -2.546875 C 4.046875 -2.9375 3.59375 -3.0625 3.328125 -3.0625 C 2.96875 -3.0625 2.703125 -2.828125 2.546875 -2.5625 C 2.421875 -2.84375 2.109375 -3.0625 1.71875 -3.0625 C 0.9375 -3.0625 0.5 -2.203125 0.5 -2 C 0.5 -1.90625 0.59375 -1.90625 0.609375 -1.90625 C 0.703125 -1.90625 0.703125 -1.9375 0.75 -2.03125 C 0.921875 -2.5625 1.359375 -2.859375 1.6875 -2.859375 C 1.921875 -2.859375 2.109375 -2.734375 2.109375 -2.40625 C 2.109375 -2.265625 2.03125 -1.921875 1.96875 -1.6875 Z M 1.734375 -0.734375 "/>
</g>
<g id="glyph-3-1">
<path d="M 3.859375 -2.609375 C 3.890625 -2.71875 3.890625 -2.71875 3.890625 -2.765625 C 3.890625 -2.90625 3.78125 -2.984375 3.65625 -2.984375 C 3.578125 -2.984375 3.453125 -2.953125 3.375 -2.828125 C 3.34375 -2.78125 3.296875 -2.5625 3.265625 -2.421875 L 3.109375 -1.84375 C 3.078125 -1.671875 2.859375 -0.8125 2.84375 -0.734375 C 2.828125 -0.734375 2.53125 -0.125 1.984375 -0.125 C 1.515625 -0.125 1.515625 -0.578125 1.515625 -0.703125 C 1.515625 -1.078125 1.671875 -1.515625 1.875 -2.046875 C 1.96875 -2.265625 2 -2.359375 2 -2.46875 C 2 -2.796875 1.71875 -3.0625 1.34375 -3.0625 C 0.640625 -3.0625 0.328125 -2.109375 0.328125 -2 C 0.328125 -1.90625 0.421875 -1.90625 0.4375 -1.90625 C 0.546875 -1.90625 0.546875 -1.9375 0.5625 -2.015625 C 0.75 -2.59375 1.046875 -2.859375 1.3125 -2.859375 C 1.4375 -2.859375 1.484375 -2.78125 1.484375 -2.625 C 1.484375 -2.46875 1.421875 -2.3125 1.390625 -2.21875 C 1.0625 -1.375 0.984375 -1.109375 0.984375 -0.8125 C 0.984375 -0.6875 0.984375 -0.375 1.265625 -0.140625 C 1.484375 0.03125 1.765625 0.0625 1.953125 0.0625 C 2.234375 0.0625 2.484375 -0.03125 2.71875 -0.25 C 2.625 0.140625 2.546875 0.4375 2.25 0.78125 C 2.0625 0.984375 1.796875 1.21875 1.421875 1.21875 C 1.375 1.21875 1.046875 1.21875 0.90625 0.984375 C 1.28125 0.953125 1.28125 0.625 1.28125 0.609375 C 1.28125 0.390625 1.078125 0.34375 1 0.34375 C 0.828125 0.34375 0.609375 0.484375 0.609375 0.8125 C 0.609375 1.15625 0.9375 1.421875 1.421875 1.421875 C 2.125 1.421875 2.984375 0.875 3.203125 0 Z M 3.859375 -2.609375 "/>
</g>
</g>
<clipPath id="clip-0">
<path clip-rule="nonzero" d="M 6 0.453125 L 33 0.453125 L 33 25 L 6 25 Z M 6 0.453125 "/>
</clipPath>
<clipPath id="clip-1">
<path clip-rule="nonzero" d="M 199 191 L 223.050781 191 L 223.050781 218 L 199 218 Z M 199 191 "/>
</clipPath>
</defs>
<path fill="none" stroke-width="0.3985" stroke-linecap="butt" stroke-linejoin="miter" stroke="rgb(0%, 0%, 0%)" stroke-opacity="1" stroke-miterlimit="10" d="M 113.387324 0.000677343 C 113.387324 7.517659 116.372931 14.728626 121.68896 20.044655 " transform="matrix(0.995662, 0, 0, -0.995662, 19.346713, 204.422549)"/>
<path fill-rule="nonzero" fill="rgb(90.000916%, 96.783447%, 99.372864%)" fill-opacity="1" d="M 132.242188 204.421875 C 132.242188 196.9375 135.214844 189.757812 140.507812 184.464844 L 160.464844 204.421875 Z M 132.242188 204.421875 "/>
<path fill="none" stroke-width="0.3985" stroke-linecap="butt" stroke-linejoin="miter" stroke="rgb(0%, 0%, 0%)" stroke-opacity="1" stroke-miterlimit="10" d="M 141.732937 85.04144 C 113.183314 73.212786 84.343369 21.908207 109.079575 12.904307 " transform="matrix(0.995662, 0, 0, -0.995662, 19.346713, 204.422549)"/>
<path fill-rule="nonzero" fill="rgb(0%, 0%, 0%)" fill-opacity="1" stroke-width="0.3985" stroke-linecap="butt" stroke-linejoin="miter" stroke="rgb(0%, 0%, 0%)" stroke-opacity="1" stroke-miterlimit="10" d="M 3.759878 0.00147816 C 3.297611 0.112953 1.269492 0.75254 -0.00177828 1.44633 L -0.000876089 -1.446725 C 1.269625 -0.750467 3.300028 -0.111625 3.759878 0.00147816 Z M 3.759878 0.00147816 " transform="matrix(0.935594, 0.340546, 0.340546, -0.935594, 127.954434, 191.572533)"/>
<path fill-rule="nonzero" fill="rgb(100%, 100%, 100%)" fill-opacity="1" d="M 118.945312 133.371094 L 201.988281 133.371094 L 201.988281 106.132812 L 118.945312 106.132812 Z M 118.945312 133.371094 "/>
<g fill="rgb(0%, 0%, 0%)" fill-opacity="1">
<use xlink:href="#glyph-0-0" x="122.250395" y="120.421515"/>
</g>
<g fill="rgb(0%, 0%, 0%)" fill-opacity="1">
<use xlink:href="#glyph-0-1" x="128.723785" y="120.421515"/>
<use xlink:href="#glyph-0-2" x="133.131959" y="120.421515"/>
<use xlink:href="#glyph-0-3" x="138.643169" y="120.421515"/>
<use xlink:href="#glyph-0-4" x="144.154379" y="120.421515"/>
<use xlink:href="#glyph-0-1" x="146.909984" y="120.421515"/>
<use xlink:href="#glyph-0-2" x="151.318159" y="120.421515"/>
</g>
<g fill="rgb(0%, 0%, 0%)" fill-opacity="1">
<use xlink:href="#glyph-0-5" x="156.551626" y="120.421515"/>
<use xlink:href="#glyph-0-1" x="160.409275" y="120.421515"/>
</g>
<g fill="rgb(0%, 0%, 0%)" fill-opacity="1">
<use xlink:href="#glyph-0-6" x="168.130524" y="120.421515"/>
</g>
<g fill="rgb(0%, 0%, 0%)" fill-opacity="1">
<use xlink:href="#glyph-1-0" x="178.597907" y="120.421515"/>
</g>
<g fill="rgb(0%, 0%, 0%)" fill-opacity="1">
<use xlink:href="#glyph-2-0" x="187.50311" y="113.710751"/>
</g>
<g fill="rgb(0%, 0%, 0%)" fill-opacity="1">
<use xlink:href="#glyph-3-0" x="192.494364" y="115.199266"/>
</g>
<path fill="none" stroke-width="0.398" stroke-linecap="butt" stroke-linejoin="miter" stroke="rgb(0%, 0%, 0%)" stroke-opacity="1" stroke-miterlimit="10" d="M 0.000800031 -0.0000865186 L 10.028674 -0.0000865186 " transform="matrix(0.995662, 0, 0, -0.995662, 187.50311, 117.94132)"/>
<g fill="rgb(0%, 0%, 0%)" fill-opacity="1">
<use xlink:href="#glyph-2-0" x="187.616615" y="127.22587"/>
</g>
<g fill="rgb(0%, 0%, 0%)" fill-opacity="1">
<use xlink:href="#glyph-3-1" x="192.606874" y="128.71339"/>
</g>
<path fill="none" stroke-width="0.79701" stroke-linecap="butt" stroke-linejoin="miter" stroke="rgb(0%, 0%, 0%)" stroke-opacity="1" stroke-miterlimit="10" d="M 0.000947721 192.252592 L 0.000947721 0.000677343 L 192.248939 0.000677343 " transform="matrix(0.995662, 0, 0, -0.995662, 19.346713, 204.422549)"/>
<path fill-rule="nonzero" fill="rgb(0%, 0%, 0%)" fill-opacity="1" d="M 19.347656 8.492188 C 19.210938 9.046875 18.429688 11.484375 17.582031 13.003906 L 21.109375 13.003906 C 20.261719 11.484375 19.484375 9.046875 19.347656 8.492188 Z M 19.347656 8.492188 "/>
<g clip-path="url(#clip-0)">
<path fill="none" stroke-width="0.79701" stroke-linecap="butt" stroke-linejoin="miter" stroke="rgb(0%, 0%, 0%)" stroke-opacity="1" stroke-miterlimit="10" d="M 4.533237 -0.000947721 C 3.976133 0.136367 1.528014 0.92102 0.00186218 1.77237 L 0.00186218 -1.770342 C 1.528014 -0.918992 3.976133 -0.138262 4.533237 -0.000947721 Z M 4.533237 -0.000947721 " transform="matrix(0, -0.995662, -0.995662, 0, 19.346713, 13.00576)"/>
</g>
<path fill-rule="nonzero" fill="rgb(0%, 0%, 0%)" fill-opacity="1" d="M 215.277344 204.421875 C 214.722656 204.285156 212.285156 203.507812 210.761719 202.660156 L 210.761719 206.1875 C 212.285156 205.339844 214.722656 204.558594 215.277344 204.421875 Z M 215.277344 204.421875 "/>
<g clip-path="url(#clip-1)">
<path fill="none" stroke-width="0.79701" stroke-linecap="butt" stroke-linejoin="miter" stroke="rgb(0%, 0%, 0%)" stroke-opacity="1" stroke-miterlimit="10" d="M 4.533507 0.000677343 C 3.976403 0.137992 1.528284 0.918722 -0.00179071 1.770071 L -0.00179071 -1.77264 C 1.528284 -0.921291 3.976403 -0.136637 4.533507 0.000677343 Z M 4.533507 0.000677343 " transform="matrix(0.995662, 0, 0, -0.995662, 210.763502, 204.422549)"/>
</g>
<g fill="rgb(0%, 0%, 0%)" fill-opacity="1">
<use xlink:href="#glyph-2-1" x="10.424583" y="8.029172"/>
</g>
<g fill="rgb(0%, 0%, 0%)" fill-opacity="1">
<use xlink:href="#glyph-2-2" x="214.076339" y="212.395812"/>
</g>
<path fill="none" stroke-width="1.19553" stroke-linecap="butt" stroke-linejoin="miter" stroke="rgb(0%, 39.99939%, 64.99939%)" stroke-opacity="1" stroke-miterlimit="10" d="M 0.000947721 141.732667 L 141.732937 0.000677343 " transform="matrix(0.995662, 0, 0, -0.995662, 19.346713, 204.422549)"/>
<g fill="rgb(0%, 0%, 0%)" fill-opacity="1">
<use xlink:href="#glyph-2-3" x="5.021125" y="57.263673"/>
</g>
<path fill="none" stroke-width="0.398" stroke-linecap="butt" stroke-linejoin="miter" stroke="rgb(0%, 0%, 0%)" stroke-opacity="1" stroke-miterlimit="10" d="M -0.000318226 -0.00186008 L 9.800006 -0.00186008 " transform="matrix(0.995662, 0, 0, -0.995662, 4.496411, 61.494242)"/>
<g fill="rgb(0%, 0%, 0%)" fill-opacity="1">
<use xlink:href="#glyph-2-0" x="4.496411" y="70.778792"/>
</g>
<g fill="rgb(0%, 0%, 0%)" fill-opacity="1">
<use xlink:href="#glyph-3-1" x="9.48667" y="72.266311"/>
</g>
<g fill="rgb(0%, 0%, 0%)" fill-opacity="1">
<use xlink:href="#glyph-2-3" x="156.10988" y="212.594945"/>
</g>
<path fill="none" stroke-width="0.398" stroke-linecap="butt" stroke-linejoin="miter" stroke="rgb(0%, 0%, 0%)" stroke-opacity="1" stroke-miterlimit="10" d="M 0.00100025 0.0013006 L 10.028874 0.0013006 " transform="matrix(0.995662, 0, 0, -0.995662, 155.47166, 216.825514)"/>
<g fill="rgb(0%, 0%, 0%)" fill-opacity="1">
<use xlink:href="#glyph-2-0" x="155.47166" y="226.109068"/>
</g>
<g fill="rgb(0%, 0%, 0%)" fill-opacity="1">
<use xlink:href="#glyph-3-0" x="160.461919" y="227.597583"/>
</g>
</svg>
