<?xml version="1.0" encoding="UTF-8"?>
<svg xmlns="http://www.w3.org/2000/svg" xmlns:xlink="http://www.w3.org/1999/xlink" width="269.353" height="388.494" viewBox="0 0 269.353 388.494">
<defs>
<g>
<g id="glyph-0-0">
<path d="M 0.5625 -3.40625 C 0.5625 -1.34375 2.171875 0.21875 4.015625 0.21875 C 5.640625 0.21875 6.609375 -1.15625 6.609375 -2.3125 C 6.609375 -2.421875 6.609375 -2.484375 6.484375 -2.484375 C 6.375 -2.484375 6.375 -2.421875 6.359375 -2.328125 C 6.28125 -0.90625 5.21875 -0.09375 4.140625 -0.09375 C 3.53125 -0.09375 1.578125 -0.421875 1.578125 -3.390625 C 1.578125 -6.359375 3.515625 -6.703125 4.125 -6.703125 C 5.203125 -6.703125 6.09375 -5.796875 6.296875 -4.34375 C 6.3125 -4.203125 6.3125 -4.171875 6.453125 -4.171875 C 6.609375 -4.171875 6.609375 -4.203125 6.609375 -4.40625 L 6.609375 -6.765625 C 6.609375 -6.9375 6.609375 -7 6.5 -7 C 6.453125 -7 6.421875 -7 6.34375 -6.890625 L 5.84375 -6.15625 C 5.46875 -6.515625 4.96875 -7 4.015625 -7 C 2.15625 -7 0.5625 -5.421875 0.5625 -3.40625 Z M 0.5625 -3.40625 "/>
</g>
<g id="glyph-1-0">
<path d="M 4.484375 -4.28125 C 4.484375 -4.328125 4.46875 -4.375 4.390625 -4.375 C 4.28125 -4.375 3.890625 -3.984375 3.71875 -3.703125 C 3.5 -4.234375 3.109375 -4.390625 2.796875 -4.390625 C 1.625 -4.390625 0.390625 -2.921875 0.390625 -1.484375 C 0.390625 -0.5 0.984375 0.109375 1.703125 0.109375 C 2.140625 0.109375 2.53125 -0.125 2.875 -0.484375 C 2.796875 -0.140625 2.46875 1.203125 2.4375 1.296875 C 2.359375 1.5625 2.28125 1.609375 1.71875 1.625 C 1.59375 1.625 1.484375 1.625 1.484375 1.8125 C 1.484375 1.828125 1.484375 1.921875 1.625 1.921875 C 1.9375 1.921875 2.28125 1.890625 2.609375 1.890625 C 2.953125 1.890625 3.3125 1.921875 3.640625 1.921875 C 3.6875 1.921875 3.8125 1.921875 3.8125 1.734375 C 3.8125 1.625 3.71875 1.625 3.5625 1.625 C 3.078125 1.625 3.078125 1.546875 3.078125 1.453125 C 3.078125 1.390625 3.09375 1.328125 3.125 1.25 Z M 1.734375 -0.109375 C 1.140625 -0.109375 1.109375 -0.875 1.109375 -1.046875 C 1.109375 -1.515625 1.390625 -2.609375 1.5625 -3.015625 C 1.875 -3.75 2.390625 -4.171875 2.796875 -4.171875 C 3.4375 -4.171875 3.578125 -3.375 3.578125 -3.296875 C 3.578125 -3.234375 3.03125 -1.0625 3 -1.03125 C 2.859375 -0.75 2.296875 -0.109375 1.734375 -0.109375 Z M 1.734375 -0.109375 "/>
</g>
<g id="glyph-1-1">
<path d="M 7.546875 -6.90625 C 7.546875 -6.9375 7.53125 -7 7.4375 -7 C 7.40625 -7 7.40625 -7 7.296875 -6.890625 L 6.59375 -6.125 C 6.515625 -6.265625 6.046875 -7 4.953125 -7 C 2.734375 -7 0.5 -4.8125 0.5 -2.5 C 0.5 -0.859375 1.671875 0.21875 3.1875 0.21875 C 4.046875 0.21875 4.8125 -0.171875 5.34375 -0.640625 C 6.265625 -1.453125 6.421875 -2.359375 6.421875 -2.390625 C 6.421875 -2.484375 6.328125 -2.484375 6.3125 -2.484375 C 6.25 -2.484375 6.203125 -2.46875 6.1875 -2.390625 C 6.09375 -2.09375 5.859375 -1.390625 5.171875 -0.8125 C 4.484375 -0.265625 3.859375 -0.09375 3.34375 -0.09375 C 2.453125 -0.09375 1.40625 -0.609375 1.40625 -2.15625 C 1.40625 -2.71875 1.609375 -4.328125 2.609375 -5.5 C 3.203125 -6.203125 4.140625 -6.703125 5.03125 -6.703125 C 6.046875 -6.703125 6.625 -5.9375 6.625 -4.78125 C 6.625 -4.375 6.59375 -4.375 6.59375 -4.265625 C 6.59375 -4.171875 6.703125 -4.171875 6.75 -4.171875 C 6.875 -4.171875 6.875 -4.1875 6.921875 -4.375 Z M 7.546875 -6.90625 "/>
</g>
<g id="glyph-1-2">
<path d="M 6.234375 -5.65625 C 6.734375 -6.421875 7.140625 -6.453125 7.515625 -6.484375 C 7.625 -6.484375 7.640625 -6.65625 7.640625 -6.671875 C 7.640625 -6.75 7.59375 -6.78125 7.515625 -6.78125 C 7.25 -6.78125 6.96875 -6.75 6.703125 -6.75 C 6.375 -6.75 6.03125 -6.78125 5.71875 -6.78125 C 5.65625 -6.78125 5.53125 -6.78125 5.53125 -6.59375 C 5.53125 -6.484375 5.609375 -6.484375 5.6875 -6.484375 C 5.953125 -6.453125 6.140625 -6.359375 6.140625 -6.15625 C 6.140625 -6 6 -5.78125 6 -5.78125 L 2.9375 -0.921875 L 2.265625 -6.1875 C 2.265625 -6.34375 2.5 -6.484375 2.953125 -6.484375 C 3.09375 -6.484375 3.203125 -6.484375 3.203125 -6.671875 C 3.203125 -6.765625 3.125 -6.78125 3.0625 -6.78125 C 2.65625 -6.78125 2.234375 -6.75 1.828125 -6.75 C 1.65625 -6.75 1.453125 -6.765625 1.28125 -6.765625 C 1.109375 -6.765625 0.921875 -6.78125 0.75 -6.78125 C 0.671875 -6.78125 0.5625 -6.78125 0.5625 -6.59375 C 0.5625 -6.484375 0.640625 -6.484375 0.8125 -6.484375 C 1.359375 -6.484375 1.375 -6.390625 1.40625 -6.140625 L 2.1875 -0.015625 C 2.21875 0.1875 2.25 0.21875 2.390625 0.21875 C 2.546875 0.21875 2.578125 0.171875 2.65625 0.046875 Z M 6.234375 -5.65625 "/>
</g>
<g id="glyph-1-3">
<path d="M 3.015625 -3.234375 L 3.96875 -3.234375 C 4.71875 -3.234375 4.796875 -3.078125 4.796875 -2.78125 C 4.796875 -2.71875 4.796875 -2.59375 4.734375 -2.296875 C 4.703125 -2.25 4.703125 -2.203125 4.703125 -2.1875 C 4.703125 -2.109375 4.765625 -2.0625 4.8125 -2.0625 C 4.921875 -2.0625 4.921875 -2.09375 4.96875 -2.28125 L 5.515625 -4.4375 C 5.546875 -4.546875 5.546875 -4.5625 5.546875 -4.59375 C 5.546875 -4.609375 5.53125 -4.703125 5.421875 -4.703125 C 5.328125 -4.703125 5.3125 -4.65625 5.28125 -4.484375 C 5.0625 -3.71875 4.84375 -3.53125 4 -3.53125 L 3.09375 -3.53125 L 3.734375 -6.0625 C 3.8125 -6.40625 3.828125 -6.453125 4.265625 -6.453125 L 5.578125 -6.453125 C 6.796875 -6.453125 7.03125 -6.125 7.03125 -5.359375 C 7.03125 -5.125 7.03125 -5.09375 7 -4.8125 C 6.96875 -4.6875 6.96875 -4.671875 6.96875 -4.640625 C 6.96875 -4.59375 7 -4.515625 7.09375 -4.515625 C 7.203125 -4.515625 7.21875 -4.578125 7.234375 -4.765625 L 7.4375 -6.484375 C 7.46875 -6.75 7.40625 -6.75 7.171875 -6.75 L 2.296875 -6.75 C 2.09375 -6.75 2 -6.75 2 -6.5625 C 2 -6.453125 2.09375 -6.453125 2.28125 -6.453125 C 2.640625 -6.453125 2.921875 -6.453125 2.921875 -6.265625 C 2.921875 -6.234375 2.921875 -6.21875 2.875 -6.03125 L 1.5625 -0.78125 C 1.453125 -0.390625 1.4375 -0.3125 0.65625 -0.3125 C 0.484375 -0.3125 0.375 -0.3125 0.375 -0.125 C 0.375 0 0.5 0 0.53125 0 C 0.8125 0 1.546875 -0.03125 1.84375 -0.03125 C 2.171875 -0.03125 2.984375 0 3.3125 0 C 3.40625 0 3.53125 0 3.53125 -0.1875 C 3.53125 -0.265625 3.46875 -0.28125 3.46875 -0.296875 C 3.4375 -0.3125 3.421875 -0.3125 3.1875 -0.3125 C 2.96875 -0.3125 2.921875 -0.3125 2.671875 -0.328125 C 2.390625 -0.359375 2.359375 -0.390625 2.359375 -0.53125 C 2.359375 -0.546875 2.359375 -0.609375 2.390625 -0.75 Z M 3.015625 -3.234375 "/>
</g>
<g id="glyph-1-4">
<path d="M 4.25 -6.03125 C 4.3125 -6.3125 4.359375 -6.375 4.46875 -6.40625 C 4.5625 -6.421875 4.890625 -6.421875 5.09375 -6.421875 C 6.109375 -6.421875 6.546875 -6.375 6.546875 -5.609375 C 6.546875 -5.453125 6.515625 -5.0625 6.46875 -4.8125 C 6.453125 -4.765625 6.4375 -4.65625 6.4375 -4.625 C 6.4375 -4.5625 6.46875 -4.484375 6.5625 -4.484375 C 6.671875 -4.484375 6.6875 -4.578125 6.703125 -4.71875 L 6.96875 -6.453125 C 6.984375 -6.484375 7 -6.59375 7 -6.625 C 7 -6.734375 6.890625 -6.734375 6.734375 -6.734375 L 1.21875 -6.734375 C 0.96875 -6.734375 0.96875 -6.71875 0.890625 -6.53125 L 0.296875 -4.78125 C 0.28125 -4.765625 0.234375 -4.625 0.234375 -4.59375 C 0.234375 -4.546875 0.28125 -4.484375 0.359375 -4.484375 C 0.453125 -4.484375 0.46875 -4.546875 0.53125 -4.703125 C 1.0625 -6.234375 1.328125 -6.421875 2.796875 -6.421875 L 3.1875 -6.421875 C 3.453125 -6.421875 3.453125 -6.375 3.453125 -6.296875 C 3.453125 -6.234375 3.421875 -6.125 3.421875 -6.09375 L 2.09375 -0.78125 C 2 -0.421875 1.96875 -0.3125 0.90625 -0.3125 C 0.546875 -0.3125 0.484375 -0.3125 0.484375 -0.125 C 0.484375 0 0.59375 0 0.65625 0 C 0.921875 0 1.203125 -0.015625 1.46875 -0.015625 C 1.75 -0.015625 2.03125 -0.03125 2.3125 -0.03125 C 2.59375 -0.03125 2.875 -0.015625 3.140625 -0.015625 C 3.421875 -0.015625 3.734375 0 4 0 C 4.109375 0 4.21875 0 4.21875 -0.203125 C 4.21875 -0.3125 4.140625 -0.3125 3.890625 -0.3125 C 3.640625 -0.3125 3.515625 -0.3125 3.25 -0.328125 C 2.96875 -0.359375 2.875 -0.390625 2.875 -0.546875 C 2.875 -0.5625 2.875 -0.609375 2.921875 -0.75 Z M 4.25 -6.03125 "/>
</g>
<g id="glyph-1-5">
<path d="M 9.203125 -6.015625 C 9.296875 -6.375 9.3125 -6.484375 10.0625 -6.484375 C 10.28125 -6.484375 10.375 -6.484375 10.375 -6.671875 C 10.375 -6.78125 10.28125 -6.78125 10.109375 -6.78125 L 8.796875 -6.78125 C 8.53125 -6.78125 8.53125 -6.78125 8.40625 -6.59375 L 4.78125 -0.9375 L 4 -6.5625 C 3.96875 -6.78125 3.953125 -6.78125 3.703125 -6.78125 L 2.328125 -6.78125 C 2.140625 -6.78125 2.03125 -6.78125 2.03125 -6.59375 C 2.03125 -6.484375 2.125 -6.484375 2.328125 -6.484375 C 2.453125 -6.484375 2.640625 -6.46875 2.75 -6.453125 C 2.90625 -6.4375 2.96875 -6.40625 2.96875 -6.296875 C 2.96875 -6.265625 2.96875 -6.234375 2.9375 -6.109375 L 1.671875 -1.046875 C 1.5625 -0.65625 1.40625 -0.34375 0.59375 -0.3125 C 0.546875 -0.3125 0.421875 -0.296875 0.421875 -0.125 C 0.421875 -0.03125 0.484375 0 0.5625 0 C 0.875 0 1.21875 -0.03125 1.546875 -0.03125 C 1.890625 -0.03125 2.25 0 2.578125 0 C 2.625 0 2.75 0 2.75 -0.203125 C 2.75 -0.3125 2.640625 -0.3125 2.578125 -0.3125 C 2 -0.3125 1.890625 -0.515625 1.890625 -0.75 C 1.890625 -0.8125 1.90625 -0.859375 1.9375 -0.96875 L 3.296875 -6.390625 L 4.15625 -0.234375 C 4.171875 -0.109375 4.1875 0 4.296875 0 C 4.40625 0 4.46875 -0.109375 4.515625 -0.171875 L 8.53125 -6.46875 L 8.546875 -6.46875 L 7.125 -0.78125 C 7.03125 -0.390625 7 -0.3125 6.21875 -0.3125 C 6.046875 -0.3125 5.9375 -0.3125 5.9375 -0.125 C 5.9375 0 6.0625 0 6.09375 0 C 6.375 0 7.046875 -0.03125 7.328125 -0.03125 C 7.734375 -0.03125 8.15625 0 8.5625 0 C 8.625 0 8.75 0 8.75 -0.203125 C 8.75 -0.3125 8.671875 -0.3125 8.484375 -0.3125 C 8.109375 -0.3125 7.828125 -0.3125 7.828125 -0.484375 C 7.828125 -0.53125 7.828125 -0.546875 7.875 -0.71875 Z M 9.203125 -6.015625 "/>
</g>
<g id="glyph-1-6">
<path d="M 1.859375 -2.296875 C 2.140625 -2.296875 2.875 -2.3125 3.375 -2.53125 C 4.078125 -2.828125 4.125 -3.40625 4.125 -3.546875 C 4.125 -3.984375 3.75 -4.390625 3.0625 -4.390625 C 1.953125 -4.390625 0.453125 -3.421875 0.453125 -1.6875 C 0.453125 -0.671875 1.046875 0.109375 2.015625 0.109375 C 3.4375 0.109375 4.265625 -0.9375 4.265625 -1.0625 C 4.265625 -1.125 4.21875 -1.1875 4.15625 -1.1875 C 4.109375 -1.1875 4.078125 -1.171875 4.03125 -1.09375 C 3.234375 -0.109375 2.15625 -0.109375 2.03125 -0.109375 C 1.265625 -0.109375 1.171875 -0.9375 1.171875 -1.265625 C 1.171875 -1.375 1.1875 -1.6875 1.328125 -2.296875 Z M 1.390625 -2.515625 C 1.78125 -4.03125 2.796875 -4.171875 3.0625 -4.171875 C 3.53125 -4.171875 3.796875 -3.890625 3.796875 -3.546875 C 3.796875 -2.515625 2.203125 -2.515625 1.796875 -2.515625 Z M 1.390625 -2.515625 "/>
</g>
<g id="glyph-1-7">
<path d="M 4.6875 -3.75 C 4.6875 -3.8125 4.703125 -3.859375 4.703125 -3.921875 C 4.703125 -4.09375 4.59375 -4.1875 4.421875 -4.1875 C 4.328125 -4.1875 4.046875 -4.125 4.015625 -3.765625 C 3.828125 -4.140625 3.484375 -4.390625 3.09375 -4.390625 C 1.953125 -4.390625 0.71875 -3 0.71875 -1.5625 C 0.71875 -0.59375 1.328125 0 2.046875 0 C 2.640625 0 3.09375 -0.46875 3.203125 -0.578125 L 3.203125 -0.5625 C 3 0.3125 2.875 0.71875 2.875 0.75 C 2.84375 0.828125 2.5 1.8125 1.453125 1.8125 C 1.265625 1.8125 0.9375 1.8125 0.65625 1.71875 C 0.953125 1.625 1.0625 1.375 1.0625 1.203125 C 1.0625 1.046875 0.953125 0.859375 0.6875 0.859375 C 0.46875 0.859375 0.15625 1.03125 0.15625 1.4375 C 0.15625 1.84375 0.515625 2.03125 1.46875 2.03125 C 2.71875 2.03125 3.421875 1.265625 3.578125 0.671875 Z M 3.390625 -1.265625 C 3.328125 -1.015625 3.09375 -0.765625 2.875 -0.578125 C 2.671875 -0.390625 2.359375 -0.21875 2.078125 -0.21875 C 1.578125 -0.21875 1.4375 -0.734375 1.4375 -1.140625 C 1.4375 -1.609375 1.71875 -2.78125 1.984375 -3.296875 C 2.25 -3.78125 2.6875 -4.171875 3.09375 -4.171875 C 3.75 -4.171875 3.890625 -3.375 3.890625 -3.3125 C 3.890625 -3.265625 3.875 -3.203125 3.859375 -3.171875 Z M 3.390625 -1.265625 "/>
</g>
</g>
<clipPath id="clip-0">
<path clip-rule="nonzero" d="M 1 0.214844 L 28 0.214844 L 28 25 L 1 25 Z M 1 0.214844 "/>
</clipPath>
<clipPath id="clip-1">
<path clip-rule="nonzero" d="M 223 361 L 251 361 L 251 387.777344 L 223 387.777344 Z M 223 361 "/>
</clipPath>
<clipPath id="clip-2">
<path clip-rule="nonzero" d="M 28.339844 207 L 238 207 L 238 372 L 28.339844 372 Z M 28.339844 207 "/>
</clipPath>
<clipPath id="clip-3">
<path clip-rule="nonzero" d="M 56.621094 207 L 224 207 L 224 358 L 56.621094 358 Z M 56.621094 207 "/>
</clipPath>
<clipPath id="clip-4">
<path clip-rule="nonzero" d="M 42.480469 193 L 198.011719 193 L 198.011719 309 L 42.480469 309 Z M 42.480469 193 "/>
</clipPath>
<clipPath id="clip-5">
<path clip-rule="nonzero" d="M 59 193 L 212.152344 193 L 212.152344 287 L 59 287 Z M 59 193 "/>
</clipPath>
</defs>
<path fill="none" stroke-width="0.79701" stroke-linecap="butt" stroke-linejoin="miter" stroke="rgb(0%, 0%, 0%)" stroke-opacity="1" stroke-miterlimit="10" d="M -0.00167398 163.903136 L -0.00167398 -0.00134597 L 220.597259 -0.00134597 " transform="matrix(0.997604, 0, 0, -0.997604, 14.200889, 176.592407)"/>
<path fill-rule="nonzero" fill="rgb(0%, 0%, 0%)" fill-opacity="1" d="M 14.199219 8.558594 C 14.0625 9.113281 13.28125 11.554688 12.433594 13.082031 L 15.96875 13.082031 C 15.121094 11.554688 14.339844 9.113281 14.199219 8.558594 Z M 14.199219 8.558594 "/>
<g clip-path="url(#clip-0)">
<path fill="none" stroke-width="0.79701" stroke-linecap="butt" stroke-linejoin="miter" stroke="rgb(0%, 0%, 0%)" stroke-opacity="1" stroke-miterlimit="10" d="M 4.53352 0.00167398 C 3.9775 0.138721 1.530229 0.921848 -0.000783516 1.77154 L -0.000783516 -1.772108 C 1.530229 -0.922415 3.9775 -0.139289 4.53352 0.00167398 Z M 4.53352 0.00167398 " transform="matrix(0, -0.997604, -0.997604, 0, 14.200889, 13.08125)"/>
</g>
<path fill-rule="nonzero" fill="rgb(0%, 0%, 0%)" fill-opacity="1" stroke-width="0.79701" stroke-linecap="butt" stroke-linejoin="miter" stroke="rgb(0%, 0%, 0%)" stroke-opacity="1" stroke-miterlimit="10" d="M 4.534012 -0.00134597 C 3.977992 0.139617 1.530721 0.918828 -0.000291078 1.772436 L -0.000291078 -1.771212 C 1.530721 -0.92152 3.977992 -0.138393 4.534012 -0.00134597 Z M 4.534012 -0.00134597 " transform="matrix(0.997604, 0, 0, -0.997604, 234.269822, 176.592407)"/>
<g fill="rgb(0%, 0%, 0%)" fill-opacity="1">
<use xlink:href="#glyph-0-0" x="3.313042" y="10.31681"/>
</g>
<g fill="rgb(0%, 0%, 0%)" fill-opacity="1">
<use xlink:href="#glyph-1-0" x="238.032234" y="184.581218"/>
</g>
<path fill="none" stroke-width="0.79701" stroke-linecap="butt" stroke-linejoin="miter" stroke="rgb(0%, 0%, 0%)" stroke-opacity="1" stroke-miterlimit="10" d="M -0.00167398 -34.525482 L -0.00167398 -198.426049 L 220.597259 -198.426049 " transform="matrix(0.997604, 0, 0, -0.997604, 14.200889, 176.592407)"/>
<path fill-rule="nonzero" fill="rgb(0%, 0%, 0%)" fill-opacity="1" stroke-width="0.79701" stroke-linecap="butt" stroke-linejoin="miter" stroke="rgb(0%, 0%, 0%)" stroke-opacity="1" stroke-miterlimit="10" d="M 4.532621 0.00167398 C 3.976601 0.138721 1.52933 0.921848 -0.00168228 1.77154 L -0.00168228 -1.772108 C 1.52933 -0.922415 3.976601 -0.139289 4.532621 0.00167398 Z M 4.532621 0.00167398 " transform="matrix(0, -0.997604, -0.997604, 0, 14.200889, 211.033478)"/>
<path fill-rule="nonzero" fill="rgb(0%, 0%, 0%)" fill-opacity="1" d="M 238.792969 374.542969 C 238.238281 374.40625 235.796875 373.625 234.269531 372.777344 L 234.269531 376.3125 C 235.796875 375.464844 238.238281 374.683594 238.792969 374.542969 Z M 238.792969 374.542969 "/>
<g clip-path="url(#clip-1)">
<path fill="none" stroke-width="0.79701" stroke-linecap="butt" stroke-linejoin="miter" stroke="rgb(0%, 0%, 0%)" stroke-opacity="1" stroke-miterlimit="10" d="M 4.534012 0.0016809 C 3.977992 0.138728 1.530721 0.921855 -0.000291078 1.771547 L -0.000291078 -1.772101 C 1.530721 -0.922408 3.977992 -0.139282 4.534012 0.0016809 Z M 4.534012 0.0016809 " transform="matrix(0.997604, 0, 0, -0.997604, 234.269822, 374.544646)"/>
</g>
<g fill="rgb(0%, 0%, 0%)" fill-opacity="1">
<use xlink:href="#glyph-0-0" x="3.313042" y="208.266325"/>
</g>
<g fill="rgb(0%, 0%, 0%)" fill-opacity="1">
<use xlink:href="#glyph-1-0" x="238.032234" y="382.530733"/>
</g>
<path fill="none" stroke-width="0.79701" stroke-linecap="butt" stroke-linejoin="miter" stroke="rgb(0%, 39.99939%, 64.99939%)" stroke-opacity="1" stroke-miterlimit="10" d="M -0.00167398 -0.00134597 C 28.29269 28.293018 45.028106 56.693104 85.04196 56.693104 C 134.664777 56.693104 181.456591 66.756281 198.426945 113.387555 " transform="matrix(0.997604, 0, 0, -0.997604, 14.200889, 176.592407)"/>
<g fill="rgb(0%, 0%, 0%)" fill-opacity="1">
<use xlink:href="#glyph-1-1" x="215.860492" y="66.873957"/>
</g>
<g fill="rgb(0%, 0%, 0%)" fill-opacity="1">
<use xlink:href="#glyph-1-2" x="223.679288" y="66.873957"/>
</g>
<path fill="none" stroke-width="0.79701" stroke-linecap="butt" stroke-linejoin="miter" stroke="rgb(100%, 45.999146%, 8.999634%)" stroke-opacity="1" stroke-miterlimit="10" d="M -0.00167398 42.518513 L 198.426945 42.518513 " transform="matrix(0.997604, 0, 0, -0.997604, 14.200889, 176.592407)"/>
<g fill="rgb(0%, 0%, 0%)" fill-opacity="1">
<use xlink:href="#glyph-1-1" x="215.860492" y="137.570141"/>
</g>
<g fill="rgb(0%, 0%, 0%)" fill-opacity="1">
<use xlink:href="#glyph-1-3" x="223.679288" y="137.570141"/>
</g>
<path fill="none" stroke-width="0.79701" stroke-linecap="butt" stroke-linejoin="miter" stroke="rgb(100%, 0%, 0%)" stroke-opacity="1" stroke-miterlimit="10" d="M -0.00167398 42.518513 C 28.29269 70.812877 45.028106 99.212963 85.04196 99.212963 C 134.664777 99.212963 181.456591 109.27614 198.426945 155.907414 " transform="matrix(0.997604, 0, 0, -0.997604, 14.200889, 176.592407)"/>
<g fill="rgb(0%, 0%, 0%)" fill-opacity="1">
<use xlink:href="#glyph-1-1" x="215.860492" y="24.455847"/>
</g>
<g fill="rgb(0%, 0%, 0%)" fill-opacity="1">
<use xlink:href="#glyph-1-4" x="223.679288" y="24.455847"/>
</g>
<path fill-rule="nonzero" fill="rgb(0%, 0%, 0%)" fill-opacity="1" stroke-width="0.3985" stroke-linecap="butt" stroke-linejoin="miter" stroke="rgb(0%, 0%, 0%)" stroke-opacity="1" stroke-miterlimit="10" d="M 87.031101 99.212963 C 87.031101 100.313256 86.142252 101.206021 85.04196 101.206021 C 83.941667 101.206021 83.048902 100.313256 83.048902 99.212963 C 83.048902 98.112671 83.941667 97.219906 85.04196 97.219906 C 86.142252 97.219906 87.031101 98.112671 87.031101 99.212963 Z M 87.031101 99.212963 " transform="matrix(0.997604, 0, 0, -0.997604, 14.200889, 176.592407)"/>
<path fill-rule="nonzero" fill="rgb(0%, 0%, 0%)" fill-opacity="1" stroke-width="0.3985" stroke-linecap="butt" stroke-linejoin="miter" stroke="rgb(0%, 0%, 0%)" stroke-opacity="1" stroke-miterlimit="10" d="M 157.900143 68.032778 C 157.900143 69.133071 157.007379 70.025835 155.907086 70.025835 C 154.806793 70.025835 153.914029 69.133071 153.914029 68.032778 C 153.914029 66.932485 154.806793 66.03972 155.907086 66.03972 C 157.007379 66.03972 157.900143 66.932485 157.900143 68.032778 Z M 157.900143 68.032778 " transform="matrix(0.997604, 0, 0, -0.997604, 14.200889, 176.592407)"/>
<path fill-rule="nonzero" fill="rgb(0%, 0%, 0%)" fill-opacity="1" stroke-width="0.3985" stroke-linecap="butt" stroke-linejoin="miter" stroke="rgb(0%, 0%, 0%)" stroke-opacity="1" stroke-miterlimit="10" d="M 172.074735 118.489625 C 172.074735 119.589918 171.18197 120.482682 170.081677 120.482682 C 168.981384 120.482682 168.08862 119.589918 168.08862 118.489625 C 168.08862 117.389332 168.981384 116.496568 170.081677 116.496568 C 171.18197 116.496568 172.074735 117.389332 172.074735 118.489625 Z M 172.074735 118.489625 " transform="matrix(0.997604, 0, 0, -0.997604, 14.200889, 176.592407)"/>
<path fill="none" stroke-width="0.3985" stroke-linecap="butt" stroke-linejoin="miter" stroke="rgb(0%, 0%, 0%)" stroke-opacity="1" stroke-dasharray="2.98883 2.98883" stroke-miterlimit="10" d="M -0.00167398 -0.00134597 L 233.953483 101.722884 " transform="matrix(0.997604, 0, 0, -0.997604, 14.200889, 176.592407)"/>
<path fill="none" stroke-width="0.3985" stroke-linecap="butt" stroke-linejoin="miter" stroke="rgb(0%, 0%, 0%)" stroke-opacity="1" stroke-dasharray="2.98883 2.98883" stroke-miterlimit="10" d="M -0.00167398 -0.00134597 L 209.613908 145.409602 " transform="matrix(0.997604, 0, 0, -0.997604, 14.200889, 176.592407)"/>
<path fill="none" stroke-width="0.3985" stroke-linecap="butt" stroke-linejoin="miter" stroke="rgb(0%, 0%, 0%)" stroke-opacity="1" stroke-dasharray="2.98883 2.98883" stroke-miterlimit="10" d="M 85.04196 99.212963 L 85.04196 -198.426049 " transform="matrix(0.997604, 0, 0, -0.997604, 14.200889, 176.592407)"/>
<path fill="none" stroke-width="0.3985" stroke-linecap="butt" stroke-linejoin="miter" stroke="rgb(0%, 0%, 0%)" stroke-opacity="1" stroke-dasharray="2.98883 2.98883" stroke-miterlimit="10" d="M 155.907086 68.032778 L 155.907086 -198.426049 " transform="matrix(0.997604, 0, 0, -0.997604, 14.200889, 176.592407)"/>
<path fill="none" stroke-width="0.3985" stroke-linecap="butt" stroke-linejoin="miter" stroke="rgb(0%, 0%, 0%)" stroke-opacity="1" stroke-dasharray="2.98883 2.98883" stroke-miterlimit="10" d="M 170.081677 118.489625 L 170.081677 -198.426049 " transform="matrix(0.997604, 0, 0, -0.997604, 14.200889, 176.592407)"/>
<g clip-path="url(#clip-2)">
<path fill="none" stroke-width="0.79701" stroke-linecap="butt" stroke-linejoin="miter" stroke="rgb(100%, 45.999146%, 8.999634%)" stroke-opacity="1" stroke-miterlimit="10" d="M -0.00167398 -42.521205 C 50.016622 -129.154585 112.564944 -184.255373 212.601536 -184.255373 " transform="matrix(0.997604, 0, 0, -0.997604, 14.200889, 176.592407)"/>
</g>
<g fill="rgb(0%, 0%, 0%)" fill-opacity="1">
<use xlink:href="#glyph-1-1" x="229.999529" y="363.798728"/>
</g>
<g fill="rgb(0%, 0%, 0%)" fill-opacity="1">
<use xlink:href="#glyph-1-3" x="237.818325" y="363.798728"/>
</g>
<g fill="rgb(0%, 0%, 0%)" fill-opacity="1">
<use xlink:href="#glyph-1-5" x="245.581465" y="363.798728"/>
</g>
<g fill="rgb(0%, 0%, 0%)" fill-opacity="1">
<use xlink:href="#glyph-1-6" x="256.306345" y="363.798728"/>
</g>
<g clip-path="url(#clip-3)">
<path fill="none" stroke-width="0.79701" stroke-linecap="butt" stroke-linejoin="miter" stroke="rgb(0%, 67.83905%, 93.728638%)" stroke-opacity="1" stroke-miterlimit="10" d="M -0.00167398 -42.521205 C 9.568133 -71.222795 42.522101 -170.080782 85.04196 -170.080782 C 141.732494 -170.080782 185.669812 -71.222795 198.426945 -42.521205 " transform="matrix(0.997604, 0, 0, -0.997604, 14.200889, 176.592407)"/>
</g>
<g fill="rgb(0%, 0%, 0%)" fill-opacity="1">
<use xlink:href="#glyph-1-1" x="200.331793" y="213.367073"/>
</g>
<g fill="rgb(0%, 0%, 0%)" fill-opacity="1">
<use xlink:href="#glyph-1-5" x="208.150589" y="213.367073"/>
</g>
<g fill="rgb(0%, 0%, 0%)" fill-opacity="1">
<use xlink:href="#glyph-1-7" x="218.875469" y="213.367073"/>
</g>
<g clip-path="url(#clip-4)">
<path fill="none" stroke-width="0.79701" stroke-linecap="butt" stroke-linejoin="miter" stroke="rgb(0%, 39.99939%, 64.99939%)" stroke-opacity="1" stroke-miterlimit="10" d="M 28.347509 -28.346613 C 42.698304 -49.075975 92.12534 -120.473627 155.907086 -120.473627 C 191.339649 -120.473627 218.799983 -60.059325 226.776128 -42.521205 " transform="matrix(0.997604, 0, 0, -0.997604, 14.200889, 176.592407)"/>
</g>
<path fill-rule="nonzero" fill="rgb(100%, 100%, 100%)" fill-opacity="1" d="M 198.910156 291.328125 L 236.707031 291.328125 L 236.707031 277.910156 L 198.910156 277.910156 Z M 198.910156 291.328125 "/>
<g fill="rgb(0%, 0%, 0%)" fill-opacity="1">
<use xlink:href="#glyph-1-1" x="202.219259" y="288.011772"/>
</g>
<g fill="rgb(0%, 0%, 0%)" fill-opacity="1">
<use xlink:href="#glyph-1-2" x="210.038055" y="288.011772"/>
</g>
<g fill="rgb(0%, 0%, 0%)" fill-opacity="1">
<use xlink:href="#glyph-1-5" x="218.041712" y="288.011772"/>
</g>
<g fill="rgb(0%, 0%, 0%)" fill-opacity="1">
<use xlink:href="#glyph-1-6" x="228.766592" y="288.011772"/>
</g>
<g clip-path="url(#clip-5)">
<path fill="none" stroke-width="0.79701" stroke-linecap="butt" stroke-linejoin="miter" stroke="rgb(100%, 0%, 0%)" stroke-opacity="1" stroke-miterlimit="10" d="M 56.692776 -28.346613 C 69.449909 -44.291071 113.387227 -99.215655 170.081677 -99.215655 C 198.426945 -99.215655 220.397562 -55.278337 226.776128 -42.521205 " transform="matrix(0.997604, 0, 0, -0.997604, 14.200889, 176.592407)"/>
</g>
<path fill-rule="nonzero" fill="rgb(100%, 100%, 100%)" fill-opacity="1" d="M 213.457031 263.046875 L 250.4375 263.046875 L 250.4375 249.628906 L 213.457031 249.628906 Z M 213.457031 263.046875 "/>
<g fill="rgb(0%, 0%, 0%)" fill-opacity="1">
<use xlink:href="#glyph-1-1" x="216.767314" y="259.733698"/>
</g>
<g fill="rgb(0%, 0%, 0%)" fill-opacity="1">
<use xlink:href="#glyph-1-4" x="224.58611" y="259.733698"/>
</g>
<g fill="rgb(0%, 0%, 0%)" fill-opacity="1">
<use xlink:href="#glyph-1-5" x="231.765846" y="259.733698"/>
</g>
<g fill="rgb(0%, 0%, 0%)" fill-opacity="1">
<use xlink:href="#glyph-1-6" x="242.490726" y="259.733698"/>
</g>
<path fill-rule="nonzero" fill="rgb(0%, 0%, 0%)" fill-opacity="1" stroke-width="0.3985" stroke-linecap="butt" stroke-linejoin="miter" stroke="rgb(0%, 0%, 0%)" stroke-opacity="1" stroke-miterlimit="10" d="M 87.031101 -170.080782 C 87.031101 -168.980489 86.142252 -168.087724 85.04196 -168.087724 C 83.941667 -168.087724 83.048902 -168.980489 83.048902 -170.080782 C 83.048902 -171.181075 83.941667 -172.073839 85.04196 -172.073839 C 86.142252 -172.073839 87.031101 -171.181075 87.031101 -170.080782 Z M 87.031101 -170.080782 " transform="matrix(0.997604, 0, 0, -0.997604, 14.200889, 176.592407)"/>
<path fill-rule="nonzero" fill="rgb(0%, 0%, 0%)" fill-opacity="1" stroke-width="0.3985" stroke-linecap="butt" stroke-linejoin="miter" stroke="rgb(0%, 0%, 0%)" stroke-opacity="1" stroke-miterlimit="10" d="M 157.900143 -120.473627 C 157.900143 -119.373334 157.007379 -118.48057 155.907086 -118.48057 C 154.806793 -118.48057 153.914029 -119.373334 153.914029 -120.473627 C 153.914029 -121.57392 154.806793 -122.466684 155.907086 -122.466684 C 157.007379 -122.466684 157.900143 -121.57392 157.900143 -120.473627 Z M 157.900143 -120.473627 " transform="matrix(0.997604, 0, 0, -0.997604, 14.200889, 176.592407)"/>
<path fill-rule="nonzero" fill="rgb(0%, 0%, 0%)" fill-opacity="1" stroke-width="0.3985" stroke-linecap="butt" stroke-linejoin="miter" stroke="rgb(0%, 0%, 0%)" stroke-opacity="1" stroke-miterlimit="10" d="M 172.074735 -99.215655 C 172.074735 -98.111447 171.18197 -97.222598 170.081677 -97.222598 C 168.981384 -97.222598 168.08862 -98.111447 168.08862 -99.215655 C 168.08862 -100.315948 168.981384 -101.204797 170.081677 -101.204797 C 171.18197 -101.204797 172.074735 -100.315948 172.074735 -99.215655 Z M 172.074735 -99.215655 " transform="matrix(0.997604, 0, 0, -0.997604, 14.200889, 176.592407)"/>
</svg>
