<?xml version="1.0" encoding="UTF-8"?>
<svg xmlns="http://www.w3.org/2000/svg" xmlns:xlink="http://www.w3.org/1999/xlink" width="257.683" height="200.343" viewBox="0 0 257.683 200.343">
<defs>
<g>
<g id="glyph-0-0">
<path d="M 3.71875 -6.015625 C 3.8125 -6.375 3.828125 -6.484375 4.765625 -6.484375 C 5.0625 -6.484375 5.140625 -6.484375 5.140625 -6.671875 C 5.140625 -6.78125 5.03125 -6.78125 4.984375 -6.78125 C 4.65625 -6.78125 3.84375 -6.75 3.515625 -6.75 C 3.21875 -6.75 2.5 -6.78125 2.203125 -6.78125 C 2.125 -6.78125 2 -6.78125 2 -6.59375 C 2 -6.484375 2.09375 -6.484375 2.28125 -6.484375 C 2.3125 -6.484375 2.5 -6.484375 2.65625 -6.453125 C 2.84375 -6.4375 2.9375 -6.421875 2.9375 -6.296875 C 2.9375 -6.265625 2.921875 -6.234375 2.890625 -6.109375 L 1.5625 -0.78125 C 1.453125 -0.390625 1.4375 -0.3125 0.65625 -0.3125 C 0.484375 -0.3125 0.390625 -0.3125 0.390625 -0.109375 C 0.390625 0 0.484375 0 0.65625 0 L 5.25 0 C 5.5 0 5.5 0 5.5625 -0.171875 L 6.34375 -2.3125 C 6.390625 -2.421875 6.390625 -2.4375 6.390625 -2.453125 C 6.390625 -2.5 6.359375 -2.5625 6.265625 -2.5625 C 6.1875 -2.5625 6.171875 -2.515625 6.109375 -2.359375 C 5.765625 -1.4375 5.328125 -0.3125 3.609375 -0.3125 L 2.671875 -0.3125 C 2.53125 -0.3125 2.515625 -0.3125 2.453125 -0.3125 C 2.359375 -0.328125 2.328125 -0.34375 2.328125 -0.421875 C 2.328125 -0.453125 2.328125 -0.46875 2.375 -0.640625 Z M 3.71875 -6.015625 "/>
</g>
<g id="glyph-0-1">
<path d="M 4.359375 -0.0625 C 5.890625 -0.640625 7.359375 -2.421875 7.359375 -4.328125 C 7.359375 -5.9375 6.296875 -7 4.8125 -7 C 2.671875 -7 0.484375 -4.75 0.484375 -2.4375 C 0.484375 -0.78125 1.59375 0.21875 3.03125 0.21875 C 3.28125 0.21875 3.625 0.171875 4 0.0625 C 3.96875 0.6875 3.96875 0.703125 3.96875 0.828125 C 3.96875 1.15625 3.96875 1.921875 4.796875 1.921875 C 5.96875 1.921875 6.453125 0.109375 6.453125 0 C 6.453125 -0.0625 6.375 -0.09375 6.34375 -0.09375 C 6.265625 -0.09375 6.234375 -0.046875 6.21875 0.015625 C 5.984375 0.71875 5.40625 0.96875 5.0625 0.96875 C 4.59375 0.96875 4.453125 0.703125 4.359375 -0.0625 Z M 2.46875 -0.140625 C 1.703125 -0.453125 1.359375 -1.21875 1.359375 -2.109375 C 1.359375 -2.796875 1.625 -4.21875 2.375 -5.28125 C 3.09375 -6.296875 4.03125 -6.75 4.765625 -6.75 C 5.75 -6.75 6.484375 -5.984375 6.484375 -4.65625 C 6.484375 -3.65625 5.96875 -1.328125 4.296875 -0.390625 C 4.25 -0.75 4.15625 -1.46875 3.421875 -1.46875 C 2.90625 -1.46875 2.421875 -0.96875 2.421875 -0.453125 C 2.421875 -0.265625 2.46875 -0.15625 2.46875 -0.140625 Z M 3.09375 -0.03125 C 2.953125 -0.03125 2.640625 -0.03125 2.640625 -0.453125 C 2.640625 -0.859375 3.015625 -1.25 3.421875 -1.25 C 3.84375 -1.25 4.03125 -1.015625 4.03125 -0.40625 C 4.03125 -0.265625 4.03125 -0.25 3.921875 -0.203125 C 3.671875 -0.09375 3.375 -0.03125 3.09375 -0.03125 Z M 3.09375 -0.03125 "/>
</g>
<g id="glyph-0-2">
<path d="M 7.546875 -6.90625 C 7.546875 -6.9375 7.53125 -7 7.4375 -7 C 7.40625 -7 7.40625 -7 7.296875 -6.890625 L 6.59375 -6.125 C 6.515625 -6.265625 6.046875 -7 4.953125 -7 C 2.734375 -7 0.5 -4.8125 0.5 -2.5 C 0.5 -0.859375 1.671875 0.21875 3.1875 0.21875 C 4.046875 0.21875 4.8125 -0.171875 5.34375 -0.640625 C 6.265625 -1.453125 6.421875 -2.359375 6.421875 -2.390625 C 6.421875 -2.484375 6.328125 -2.484375 6.3125 -2.484375 C 6.25 -2.484375 6.203125 -2.46875 6.1875 -2.390625 C 6.09375 -2.09375 5.859375 -1.390625 5.171875 -0.8125 C 4.484375 -0.265625 3.859375 -0.09375 3.34375 -0.09375 C 2.453125 -0.09375 1.40625 -0.609375 1.40625 -2.15625 C 1.40625 -2.71875 1.609375 -4.328125 2.609375 -5.5 C 3.203125 -6.203125 4.140625 -6.703125 5.03125 -6.703125 C 6.046875 -6.703125 6.625 -5.9375 6.625 -4.78125 C 6.625 -4.375 6.59375 -4.375 6.59375 -4.265625 C 6.59375 -4.171875 6.703125 -4.171875 6.75 -4.171875 C 6.875 -4.171875 6.875 -4.1875 6.921875 -4.375 Z M 7.546875 -6.90625 "/>
</g>
<g id="glyph-1-0">
<path d="M 1.4375 -0.828125 C 1.1875 -0.453125 0.96875 -0.28125 0.5625 -0.25 C 0.484375 -0.25 0.390625 -0.25 0.390625 -0.109375 C 0.390625 -0.03125 0.453125 0 0.5 0 C 0.671875 0 0.90625 -0.03125 1.09375 -0.03125 C 1.3125 -0.03125 1.59375 0 1.8125 0 C 1.84375 0 1.953125 0 1.953125 -0.15625 C 1.953125 -0.25 1.859375 -0.25 1.828125 -0.25 C 1.765625 -0.25 1.515625 -0.265625 1.515625 -0.453125 C 1.515625 -0.546875 1.59375 -0.65625 1.625 -0.71875 L 2.1875 -1.578125 L 4.171875 -1.578125 L 4.34375 -0.4375 C 4.3125 -0.359375 4.265625 -0.25 3.859375 -0.25 C 3.78125 -0.25 3.671875 -0.25 3.671875 -0.09375 C 3.671875 -0.0625 3.703125 0 3.796875 0 C 3.984375 0 4.484375 -0.03125 4.6875 -0.03125 C 4.8125 -0.03125 4.96875 -0.015625 5.09375 -0.015625 C 5.21875 -0.015625 5.375 0 5.5 0 C 5.578125 0 5.625 -0.0625 5.625 -0.140625 C 5.625 -0.25 5.546875 -0.25 5.4375 -0.25 C 5.03125 -0.25 5.015625 -0.3125 5 -0.46875 L 4.390625 -4.765625 C 4.359375 -4.90625 4.359375 -4.953125 4.21875 -4.953125 C 4.09375 -4.953125 4.046875 -4.890625 3.984375 -4.796875 Z M 2.34375 -1.828125 L 3.8125 -4.109375 L 4.140625 -1.828125 Z M 2.34375 -1.828125 "/>
</g>
<g id="glyph-1-1">
<path d="M 5.859375 -4.796875 C 5.859375 -4.828125 5.84375 -4.890625 5.765625 -4.890625 C 5.71875 -4.890625 5.703125 -4.875 5.640625 -4.8125 L 5.140625 -4.265625 C 5.078125 -4.359375 4.6875 -4.890625 3.828125 -4.890625 C 2.140625 -4.890625 0.484375 -3.390625 0.484375 -1.828125 C 0.484375 -0.6875 1.375 0.140625 2.625 0.140625 C 3 0.140625 3.671875 0.0625 4.375 -0.546875 C 4.9375 -1.015625 5.078125 -1.609375 5.078125 -1.671875 C 5.078125 -1.765625 5 -1.765625 4.96875 -1.765625 C 4.875 -1.765625 4.859375 -1.71875 4.84375 -1.640625 C 4.546875 -0.703125 3.578125 -0.109375 2.734375 -0.109375 C 2 -0.109375 1.1875 -0.5 1.1875 -1.609375 C 1.1875 -1.8125 1.234375 -2.90625 2.03125 -3.78125 C 2.515625 -4.3125 3.234375 -4.640625 3.90625 -4.640625 C 4.703125 -4.640625 5.1875 -4.046875 5.1875 -3.28125 C 5.1875 -3.078125 5.15625 -3.03125 5.15625 -2.984375 C 5.15625 -2.90625 5.25 -2.90625 5.28125 -2.90625 C 5.390625 -2.90625 5.390625 -2.921875 5.4375 -3.046875 Z M 5.859375 -4.796875 "/>
</g>
<g id="glyph-1-2">
<path d="M 2.375 -2.15625 L 3.625 -2.15625 C 4.8125 -2.15625 5.796875 -2.90625 5.796875 -3.671875 C 5.796875 -4.25 5.234375 -4.75 4.28125 -4.75 L 1.84375 -4.75 C 1.703125 -4.75 1.625 -4.75 1.625 -4.59375 C 1.625 -4.5 1.703125 -4.5 1.84375 -4.5 C 1.953125 -4.5 1.984375 -4.5 2.109375 -4.484375 C 2.25 -4.46875 2.265625 -4.453125 2.265625 -4.390625 C 2.265625 -4.375 2.265625 -4.34375 2.234375 -4.234375 L 1.328125 -0.5625 C 1.25 -0.296875 1.25 -0.25 0.703125 -0.25 C 0.578125 -0.25 0.5 -0.25 0.5 -0.09375 C 0.5 -0.09375 0.5 0 0.609375 0 C 0.8125 0 1.3125 -0.03125 1.515625 -0.03125 C 1.625 -0.03125 1.875 -0.03125 1.984375 -0.015625 C 2.125 -0.015625 2.296875 0 2.4375 0 C 2.46875 0 2.578125 0 2.578125 -0.15625 C 2.578125 -0.25 2.5 -0.25 2.359375 -0.25 C 2.34375 -0.25 2.21875 -0.25 2.09375 -0.265625 C 1.9375 -0.28125 1.9375 -0.296875 1.9375 -0.375 C 1.9375 -0.375 1.9375 -0.421875 1.953125 -0.515625 Z M 2.875 -4.265625 C 2.921875 -4.484375 2.9375 -4.5 3.21875 -4.5 L 4.046875 -4.5 C 4.6875 -4.5 5.09375 -4.296875 5.09375 -3.8125 C 5.09375 -3.59375 5 -3.046875 4.65625 -2.734375 C 4.40625 -2.515625 4.015625 -2.375 3.515625 -2.375 L 2.40625 -2.375 Z M 2.875 -4.265625 "/>
</g>
</g>
</defs>
<path fill="none" stroke-width="0.79701" stroke-linecap="butt" stroke-linejoin="miter" stroke="rgb(0%, 0%, 0%)" stroke-opacity="1" stroke-miterlimit="10" d="M -0.00187345 163.904553 L -0.00187345 0.00162356 L 220.598098 0.00162356 " transform="matrix(0.996731, 0, 0, -0.996731, 17.513586, 183.954743)"/>
<path fill-rule="nonzero" fill="rgb(0%, 0%, 0%)" fill-opacity="1" stroke-width="0.79701" stroke-linecap="butt" stroke-linejoin="miter" stroke="rgb(0%, 0%, 0%)" stroke-opacity="1" stroke-miterlimit="10" d="M 4.534986 0.00187345 C 3.978479 0.139041 1.529067 0.918934 0.000633473 1.773289 L 0.000633473 -1.773461 C 1.529067 -0.919106 3.978479 -0.139213 4.534986 0.00187345 Z M 4.534986 0.00187345 " transform="matrix(0, -0.996731, -0.996731, 0, 17.513586, 20.586569)"/>
<path fill-rule="nonzero" fill="rgb(0%, 0%, 0%)" fill-opacity="1" stroke-width="0.79701" stroke-linecap="butt" stroke-linejoin="miter" stroke="rgb(0%, 0%, 0%)" stroke-opacity="1" stroke-miterlimit="10" d="M 4.534901 0.00162356 C 3.978394 0.138791 1.528982 0.918684 0.000548381 1.773039 L 0.000548381 -1.773711 C 1.528982 -0.919356 3.978394 -0.139463 4.534901 0.00162356 Z M 4.534901 0.00162356 " transform="matrix(0.996731, 0, 0, -0.996731, 237.390078, 183.954743)"/>
<g fill="rgb(0%, 0%, 0%)" fill-opacity="1">
<use xlink:href="#glyph-0-0" x="5.310604" y="10.094895"/>
</g>
<path fill="none" stroke-width="0.398" stroke-linecap="butt" stroke-linejoin="miter" stroke="rgb(0%, 0%, 0%)" stroke-opacity="1" stroke-miterlimit="10" d="M 0.00123357 0.00188769 L 7.874625 0.00188769 " transform="matrix(0.996731, 0, 0, -0.996731, 4.764395, 14.330007)"/>
<g fill="rgb(0%, 0%, 0%)" fill-opacity="1">
<use xlink:href="#glyph-0-1" x="4.764395" y="23.624526"/>
</g>
<g fill="rgb(0%, 0%, 0%)" fill-opacity="1">
<use xlink:href="#glyph-0-1" x="233.292964" y="194.447334"/>
</g>
<g fill="rgb(0%, 0%, 0%)" fill-opacity="1">
<use xlink:href="#glyph-1-0" x="241.14322" y="195.937447"/>
<use xlink:href="#glyph-1-1" x="247.114829" y="195.937447"/>
</g>
<path fill="none" stroke-width="1.19553" stroke-linecap="butt" stroke-linejoin="miter" stroke="rgb(100%, 45.999146%, 8.999634%)" stroke-opacity="1" stroke-miterlimit="10" d="M 14.173367 141.734431 C 14.173367 57.023947 113.717492 28.348185 198.427976 28.348185 " transform="matrix(0.996731, 0, 0, -0.996731, 17.513586, 183.954743)"/>
<g fill="rgb(0%, 0%, 0%)" fill-opacity="1">
<use xlink:href="#glyph-0-2" x="205.444291" y="150.30609"/>
</g>
<g fill="rgb(0%, 0%, 0%)" fill-opacity="1">
<use xlink:href="#glyph-1-0" x="212.542015" y="151.796203"/>
<use xlink:href="#glyph-1-2" x="218.513623" y="151.796203"/>
</g>
</svg>
