<?xml version="1.0" encoding="UTF-8"?>
<svg xmlns="http://www.w3.org/2000/svg" xmlns:xlink="http://www.w3.org/1999/xlink" width="218.662" height="198.824" viewBox="0 0 218.662 198.824">
<defs>
<g>
<g id="glyph-0-0">
<path d="M 0.40625 -2.53125 C 0.796875 -3.671875 1.875 -3.6875 1.984375 -3.6875 C 3.5 -3.6875 3.609375 -1.9375 3.609375 -1.15625 C 3.609375 -0.546875 3.546875 -0.375 3.484375 -0.171875 C 3.265625 0.546875 2.96875 1.703125 2.96875 1.953125 C 2.96875 2.0625 3.015625 2.140625 3.09375 2.140625 C 3.21875 2.140625 3.296875 1.921875 3.40625 1.546875 C 3.640625 0.703125 3.75 0.140625 3.78125 -0.171875 C 3.796875 -0.296875 3.828125 -0.421875 3.859375 -0.5625 C 4.1875 -1.546875 4.8125 -3.03125 5.21875 -3.8125 C 5.28125 -3.9375 5.40625 -4.15625 5.40625 -4.1875 C 5.40625 -4.296875 5.3125 -4.296875 5.28125 -4.296875 C 5.25 -4.296875 5.203125 -4.296875 5.171875 -4.21875 C 4.640625 -3.28125 4.25 -2.28125 3.859375 -1.28125 C 3.84375 -1.578125 3.828125 -2.34375 3.4375 -3.296875 C 3.203125 -3.90625 2.8125 -4.40625 2.125 -4.40625 C 0.875 -4.40625 0.171875 -2.890625 0.171875 -2.578125 C 0.171875 -2.484375 0.265625 -2.484375 0.375 -2.484375 Z M 0.40625 -2.53125 "/>
</g>
<g id="glyph-0-1">
<path d="M 2.921875 -3.71875 L 4.59375 -3.71875 C 4.734375 -3.71875 5.09375 -3.71875 5.09375 -4.046875 C 5.09375 -4.296875 4.875 -4.296875 4.6875 -4.296875 L 1.90625 -4.296875 C 1.703125 -4.296875 1.3125 -4.296875 0.875 -3.828125 C 0.546875 -3.46875 0.265625 -2.984375 0.265625 -2.921875 C 0.265625 -2.921875 0.265625 -2.828125 0.390625 -2.828125 C 0.46875 -2.828125 0.484375 -2.859375 0.546875 -2.953125 C 1.03125 -3.71875 1.609375 -3.71875 1.8125 -3.71875 L 2.640625 -3.71875 L 1.65625 -0.515625 C 1.625 -0.390625 1.5625 -0.1875 1.5625 -0.15625 C 1.5625 -0.046875 1.625 0.125 1.84375 0.125 C 2.1875 0.125 2.234375 -0.15625 2.265625 -0.3125 Z M 2.921875 -3.71875 "/>
</g>
<g id="glyph-0-2">
<path d="M 2.625 -4.34375 C 1.390625 -4.046875 0.421875 -2.75 0.421875 -1.546875 C 0.421875 -0.59375 1.0625 0.125 1.984375 0.125 C 3.15625 0.125 3.984375 -1.4375 3.984375 -2.8125 C 3.984375 -3.71875 3.578125 -4.21875 3.25 -4.671875 C 2.890625 -5.109375 2.296875 -5.859375 2.296875 -6.296875 C 2.296875 -6.515625 2.5 -6.765625 2.84375 -6.765625 C 3.140625 -6.765625 3.34375 -6.625 3.546875 -6.484375 C 3.75 -6.375 3.953125 -6.234375 4.09375 -6.234375 C 4.34375 -6.234375 4.5 -6.484375 4.5 -6.640625 C 4.5 -6.859375 4.34375 -6.890625 3.984375 -6.96875 C 3.46875 -7.078125 3.328125 -7.078125 3.171875 -7.078125 C 2.390625 -7.078125 2.03125 -6.65625 2.03125 -6.046875 C 2.03125 -5.515625 2.3125 -4.953125 2.625 -4.34375 Z M 2.75 -4.125 C 3 -3.671875 3.296875 -3.140625 3.296875 -2.421875 C 3.296875 -1.765625 2.921875 -0.09375 1.984375 -0.09375 C 1.4375 -0.09375 1.03125 -0.515625 1.03125 -1.28125 C 1.03125 -1.90625 1.40625 -3.765625 2.75 -4.125 Z M 2.75 -4.125 "/>
</g>
<g id="glyph-0-3">
<path d="M 4.75 -2.34375 C 4.75 -3.90625 3.828125 -4.40625 3.078125 -4.40625 C 1.71875 -4.40625 0.40625 -2.96875 0.40625 -1.578125 C 0.40625 -0.640625 1 0.109375 2.015625 0.109375 C 2.640625 0.109375 3.359375 -0.125 4.125 -0.734375 C 4.25 -0.203125 4.578125 0.109375 5.03125 0.109375 C 5.546875 0.109375 5.859375 -0.4375 5.859375 -0.59375 C 5.859375 -0.671875 5.796875 -0.703125 5.75 -0.703125 C 5.671875 -0.703125 5.640625 -0.671875 5.609375 -0.59375 C 5.4375 -0.109375 5.078125 -0.109375 5.0625 -0.109375 C 4.75 -0.109375 4.75 -0.890625 4.75 -1.125 C 4.75 -1.328125 4.75 -1.359375 4.84375 -1.46875 C 5.78125 -2.640625 5.984375 -3.796875 5.984375 -3.8125 C 5.984375 -3.828125 5.984375 -3.90625 5.875 -3.90625 C 5.765625 -3.90625 5.765625 -3.875 5.71875 -3.703125 C 5.546875 -3.078125 5.21875 -2.3125 4.75 -1.734375 Z M 4.078125 -0.984375 C 3.203125 -0.21875 2.4375 -0.109375 2.046875 -0.109375 C 1.4375 -0.109375 1.140625 -0.5625 1.140625 -1.1875 C 1.140625 -1.6875 1.40625 -2.75 1.71875 -3.265625 C 2.1875 -3.984375 2.734375 -4.1875 3.078125 -4.1875 C 4.0625 -4.1875 4.0625 -2.875 4.0625 -2.09375 C 4.0625 -1.734375 4.0625 -1.15625 4.078125 -0.984375 Z M 4.078125 -0.984375 "/>
</g>
<g id="glyph-1-0">
<path d="M 2.1875 -4.625 C 2.1875 -4.640625 2.203125 -4.734375 2.203125 -4.734375 C 2.203125 -4.78125 2.1875 -4.84375 2.09375 -4.84375 C 1.953125 -4.84375 1.375 -4.78125 1.203125 -4.765625 C 1.15625 -4.765625 1.046875 -4.75 1.046875 -4.609375 C 1.046875 -4.515625 1.15625 -4.515625 1.234375 -4.515625 C 1.5625 -4.515625 1.5625 -4.453125 1.5625 -4.40625 C 1.5625 -4.359375 1.546875 -4.3125 1.546875 -4.25 L 0.5625 -0.3125 C 0.515625 -0.1875 0.515625 -0.171875 0.515625 -0.15625 C 0.515625 -0.046875 0.609375 0.0625 0.765625 0.0625 C 0.953125 0.0625 1.03125 -0.0625 1.078125 -0.21875 C 1.09375 -0.25 1.390625 -1.484375 1.421875 -1.578125 C 1.921875 -1.53125 2.3125 -1.359375 2.3125 -1 C 2.3125 -0.96875 2.3125 -0.9375 2.296875 -0.859375 C 2.265625 -0.765625 2.265625 -0.71875 2.265625 -0.640625 C 2.265625 -0.15625 2.671875 0.0625 3.015625 0.0625 C 3.6875 0.0625 3.890625 -0.984375 3.890625 -1 C 3.890625 -1.09375 3.8125 -1.09375 3.78125 -1.09375 C 3.6875 -1.09375 3.671875 -1.046875 3.640625 -0.921875 C 3.5625 -0.625 3.375 -0.125 3.03125 -0.125 C 2.84375 -0.125 2.78125 -0.296875 2.78125 -0.484375 C 2.78125 -0.609375 2.78125 -0.625 2.828125 -0.796875 C 2.84375 -0.828125 2.859375 -0.9375 2.859375 -1.015625 C 2.859375 -1.640625 2.03125 -1.734375 1.734375 -1.75 C 1.9375 -1.875 2.1875 -2.109375 2.3125 -2.21875 C 2.671875 -2.546875 3.015625 -2.875 3.40625 -2.875 C 3.484375 -2.875 3.578125 -2.859375 3.640625 -2.78125 C 3.34375 -2.734375 3.28125 -2.5 3.28125 -2.390625 C 3.28125 -2.25 3.390625 -2.140625 3.546875 -2.140625 C 3.75 -2.140625 3.953125 -2.296875 3.953125 -2.578125 C 3.953125 -2.8125 3.78125 -3.078125 3.421875 -3.078125 C 3.015625 -3.078125 2.65625 -2.78125 2.296875 -2.453125 C 2 -2.1875 1.78125 -1.96875 1.484375 -1.84375 Z M 2.1875 -4.625 "/>
</g>
<g id="glyph-1-1">
<path d="M 4.71875 -3.921875 C 4.859375 -4.0625 5 -4.1875 5.15625 -4.296875 C 5.4375 -4.484375 5.6875 -4.5 5.78125 -4.515625 C 5.859375 -4.515625 5.9375 -4.515625 5.9375 -4.65625 C 5.9375 -4.703125 5.90625 -4.765625 5.84375 -4.765625 C 5.671875 -4.765625 5.46875 -4.734375 5.28125 -4.734375 C 5.0625 -4.734375 4.765625 -4.765625 4.5625 -4.765625 C 4.515625 -4.765625 4.421875 -4.765625 4.421875 -4.609375 C 4.421875 -4.515625 4.515625 -4.515625 4.546875 -4.515625 C 4.75 -4.5 4.75 -4.421875 4.75 -4.375 C 4.75 -4.3125 4.703125 -4.265625 4.65625 -4.1875 C 4.609375 -4.125 4.578125 -4.078125 4.53125 -4.046875 L 2.796875 -2.21875 L 1.875 -4.265625 C 1.828125 -4.359375 1.828125 -4.375 1.828125 -4.390625 C 1.828125 -4.515625 2.15625 -4.515625 2.203125 -4.515625 C 2.296875 -4.515625 2.390625 -4.515625 2.390625 -4.65625 C 2.390625 -4.671875 2.390625 -4.765625 2.265625 -4.765625 C 2.0625 -4.765625 1.546875 -4.734375 1.34375 -4.734375 C 1.15625 -4.734375 0.71875 -4.765625 0.546875 -4.765625 C 0.484375 -4.765625 0.40625 -4.734375 0.40625 -4.609375 C 0.40625 -4.515625 0.5 -4.515625 0.59375 -4.515625 C 1 -4.515625 1.03125 -4.453125 1.09375 -4.296875 L 2.171875 -1.90625 L 1.859375 -0.640625 C 1.765625 -0.28125 1.765625 -0.265625 1.21875 -0.25 C 1.09375 -0.25 1.015625 -0.25 1.015625 -0.109375 C 1.015625 -0.03125 1.0625 0 1.125 0 C 1.25 0 1.421875 -0.015625 1.546875 -0.015625 C 1.6875 -0.015625 1.890625 -0.03125 2.015625 -0.03125 C 2.15625 -0.03125 2.3125 -0.015625 2.453125 -0.015625 C 2.609375 -0.015625 2.78125 0 2.921875 0 C 2.96875 0 3.078125 0 3.078125 -0.15625 C 3.078125 -0.25 3 -0.25 2.84375 -0.25 C 2.734375 -0.25 2.703125 -0.25 2.578125 -0.265625 C 2.453125 -0.28125 2.421875 -0.296875 2.421875 -0.359375 C 2.421875 -0.40625 2.515625 -0.734375 2.5625 -0.921875 C 2.609375 -1.15625 2.765625 -1.75 2.78125 -1.78125 C 2.796875 -1.890625 2.796875 -1.90625 2.875 -1.96875 Z M 4.71875 -3.921875 "/>
</g>
<g id="glyph-2-0">
<path d="M 1.5625 -1.921875 L 2.140625 -1.921875 C 2.25 -1.921875 2.25 -1.921875 2.28125 -1.9375 C 2.3125 -1.96875 2.328125 -2.03125 2.328125 -2.0625 C 2.328125 -2.140625 2.25 -2.140625 2.15625 -2.140625 L 1.609375 -2.140625 L 1.71875 -2.546875 C 1.75 -2.6875 1.8125 -2.90625 1.8125 -2.9375 C 1.8125 -3.015625 1.75 -3.109375 1.625 -3.109375 C 1.546875 -3.109375 1.421875 -3.0625 1.375 -2.921875 C 1.359375 -2.84375 1.421875 -3.078125 1.1875 -2.140625 L 0.59375 -2.140625 C 0.484375 -2.140625 0.421875 -2.140625 0.421875 -2 C 0.421875 -1.921875 0.484375 -1.921875 0.578125 -1.921875 L 1.125 -1.921875 L 0.828125 -0.75 C 0.8125 -0.640625 0.765625 -0.484375 0.765625 -0.421875 C 0.765625 -0.140625 1.03125 0.046875 1.375 0.046875 C 1.984375 0.046875 2.34375 -0.609375 2.34375 -0.71875 C 2.34375 -0.78125 2.265625 -0.78125 2.25 -0.78125 C 2.171875 -0.78125 2.15625 -0.765625 2.125 -0.703125 C 1.96875 -0.34375 1.65625 -0.109375 1.40625 -0.109375 C 1.234375 -0.109375 1.1875 -0.234375 1.1875 -0.375 C 1.1875 -0.453125 1.203125 -0.46875 1.203125 -0.515625 Z M 1.5625 -1.921875 "/>
</g>
<g id="glyph-3-0">
<path d="M 4.578125 -3.1875 C 4.578125 -3.984375 4.53125 -4.78125 4.1875 -5.515625 C 3.71875 -6.46875 2.90625 -6.625 2.484375 -6.625 C 1.890625 -6.625 1.171875 -6.375 0.75 -5.4375 C 0.4375 -4.75 0.390625 -3.984375 0.390625 -3.1875 C 0.390625 -2.4375 0.421875 -1.546875 0.84375 -0.78125 C 1.265625 0.015625 1.984375 0.21875 2.484375 0.21875 C 3.015625 0.21875 3.765625 0.015625 4.203125 -0.9375 C 4.53125 -1.625 4.578125 -2.40625 4.578125 -3.1875 Z M 2.484375 0 C 2.09375 0 1.5 -0.25 1.328125 -1.203125 C 1.21875 -1.796875 1.21875 -2.71875 1.21875 -3.296875 C 1.21875 -3.9375 1.21875 -4.59375 1.296875 -5.140625 C 1.484375 -6.3125 2.234375 -6.40625 2.484375 -6.40625 C 2.8125 -6.40625 3.46875 -6.234375 3.65625 -5.25 C 3.75 -4.6875 3.75 -3.9375 3.75 -3.296875 C 3.75 -2.5625 3.75 -1.875 3.640625 -1.25 C 3.5 -0.296875 2.921875 0 2.484375 0 Z M 2.484375 0 "/>
</g>
<g id="glyph-3-1">
<path d="M 2.921875 -6.375 C 2.921875 -6.609375 2.921875 -6.625 2.703125 -6.625 C 2.078125 -5.984375 1.203125 -5.984375 0.890625 -5.984375 L 0.890625 -5.6875 C 1.078125 -5.6875 1.671875 -5.6875 2.1875 -5.9375 L 2.1875 -0.78125 C 2.1875 -0.421875 2.15625 -0.3125 1.265625 -0.3125 L 0.953125 -0.3125 L 0.953125 0 C 1.296875 -0.03125 2.15625 -0.03125 2.5625 -0.03125 C 2.953125 -0.03125 3.828125 -0.03125 4.171875 0 L 4.171875 -0.3125 L 3.859375 -0.3125 C 2.953125 -0.3125 2.921875 -0.421875 2.921875 -0.78125 Z M 2.921875 -6.375 "/>
</g>
<g id="glyph-3-2">
<path d="M 6.84375 -3.25 C 6.984375 -3.25 7.171875 -3.25 7.171875 -3.453125 C 7.171875 -3.65625 6.984375 -3.65625 6.84375 -3.65625 L 0.890625 -3.65625 C 0.75 -3.65625 0.5625 -3.65625 0.5625 -3.453125 C 0.5625 -3.25 0.75 -3.25 0.890625 -3.25 Z M 6.84375 -1.328125 C 6.984375 -1.328125 7.171875 -1.328125 7.171875 -1.515625 C 7.171875 -1.71875 6.984375 -1.71875 6.84375 -1.71875 L 0.890625 -1.71875 C 0.75 -1.71875 0.5625 -1.71875 0.5625 -1.515625 C 0.5625 -1.328125 0.75 -1.328125 0.890625 -1.328125 Z M 6.84375 -1.328125 "/>
</g>
<g id="glyph-4-0">
<path d="M 6.5625 -2.296875 C 6.734375 -2.296875 6.90625 -2.296875 6.90625 -2.484375 C 6.90625 -2.6875 6.734375 -2.6875 6.5625 -2.6875 L 1.171875 -2.6875 C 1 -2.6875 0.828125 -2.6875 0.828125 -2.484375 C 0.828125 -2.296875 1 -2.296875 1.171875 -2.296875 Z M 6.5625 -2.296875 "/>
</g>
<g id="glyph-5-0">
<path d="M 2.25 -1.734375 C 2.828125 -1.984375 3.078125 -2.078125 3.25 -2.171875 C 3.390625 -2.21875 3.453125 -2.25 3.453125 -2.390625 C 3.453125 -2.5 3.359375 -2.609375 3.234375 -2.609375 C 3.1875 -2.609375 3.171875 -2.609375 3.09375 -2.546875 L 2.140625 -1.90625 L 2.25 -2.9375 C 2.265625 -3.0625 2.25 -3.234375 2.03125 -3.234375 C 1.953125 -3.234375 1.8125 -3.1875 1.8125 -3.03125 C 1.8125 -2.96875 1.84375 -2.765625 1.859375 -2.6875 C 1.875 -2.578125 1.921875 -2.0625 1.9375 -1.90625 L 0.984375 -2.546875 C 0.921875 -2.578125 0.90625 -2.609375 0.84375 -2.609375 C 0.703125 -2.609375 0.625 -2.5 0.625 -2.390625 C 0.625 -2.25 0.703125 -2.203125 0.765625 -2.1875 L 1.8125 -1.734375 C 1.25 -1.484375 0.984375 -1.390625 0.8125 -1.3125 C 0.6875 -1.25 0.625 -1.21875 0.625 -1.09375 C 0.625 -0.96875 0.703125 -0.875 0.84375 -0.875 C 0.890625 -0.875 0.90625 -0.875 0.984375 -0.9375 L 1.9375 -1.5625 L 1.8125 -0.453125 C 1.8125 -0.296875 1.953125 -0.234375 2.03125 -0.234375 C 2.125 -0.234375 2.25 -0.296875 2.25 -0.453125 C 2.25 -0.515625 2.21875 -0.71875 2.21875 -0.78125 C 2.203125 -0.90625 2.15625 -1.40625 2.140625 -1.5625 L 2.96875 -1.015625 C 3.15625 -0.875 3.171875 -0.875 3.234375 -0.875 C 3.359375 -0.875 3.453125 -0.96875 3.453125 -1.09375 C 3.453125 -1.234375 3.359375 -1.265625 3.296875 -1.296875 Z M 2.25 -1.734375 "/>
</g>
</g>
<clipPath id="clip-0">
<path clip-rule="nonzero" d="M 12 0.0664062 L 28 0.0664062 L 28 11 L 12 11 Z M 12 0.0664062 "/>
</clipPath>
<clipPath id="clip-1">
<path clip-rule="nonzero" d="M 207 134 L 218.324219 134 L 218.324219 149 L 207 149 Z M 207 134 "/>
</clipPath>
<clipPath id="clip-2">
<path clip-rule="nonzero" d="M 12 188 L 28 188 L 28 198.582031 L 12 198.582031 Z M 12 188 "/>
</clipPath>
</defs>
<path fill="none" stroke-width="0.3985" stroke-linecap="butt" stroke-linejoin="miter" stroke="rgb(0%, 0%, 0%)" stroke-opacity="1" stroke-miterlimit="10" d="M 0.00073987 137.150343 L 0.00073987 0.0011694 L 193.842881 0.0011694 " transform="matrix(0.998457, 0, 0, -0.998457, 20.007074, 141.778511)"/>
<path fill-rule="nonzero" fill="rgb(0%, 0%, 0%)" fill-opacity="1" d="M 20.007812 1.082031 C 19.894531 1.542969 19.257812 3.570312 18.5625 4.839844 L 21.453125 4.839844 C 20.757812 3.570312 20.121094 1.542969 20.007812 1.082031 Z M 20.007812 1.082031 "/>
<g clip-path="url(#clip-0)">
<path fill="none" stroke-width="0.3985" stroke-linecap="butt" stroke-linejoin="miter" stroke="rgb(0%, 0%, 0%)" stroke-opacity="1" stroke-miterlimit="10" d="M 3.762764 -0.00073987 C 3.301114 0.112716 1.270636 0.750419 -0.00085745 1.446807 L -0.00085745 -1.448286 C 1.270636 -0.751899 3.301114 -0.114196 3.762764 -0.00073987 Z M 3.762764 -0.00073987 " transform="matrix(0, -0.998457, -0.998457, 0, 20.007074, 4.838988)"/>
</g>
<path fill-rule="nonzero" fill="rgb(0%, 0%, 0%)" fill-opacity="1" d="M 217.308594 141.777344 C 216.847656 141.664062 214.820312 141.027344 213.550781 140.335938 L 213.550781 143.222656 C 214.820312 142.527344 216.847656 141.890625 217.308594 141.777344 Z M 217.308594 141.777344 "/>
<g clip-path="url(#clip-1)">
<path fill="none" stroke-width="0.3985" stroke-linecap="butt" stroke-linejoin="miter" stroke="rgb(0%, 0%, 0%)" stroke-opacity="1" stroke-miterlimit="10" d="M 3.761682 0.0011694 C 3.300032 0.114626 1.269554 0.752329 -0.00193949 1.444804 L -0.00193949 -1.446377 C 1.269554 -0.74999 3.300032 -0.112287 3.761682 0.0011694 Z M 3.761682 0.0011694 " transform="matrix(0.998457, 0, 0, -0.998457, 213.552718, 141.778511)"/>
</g>
<g fill="rgb(0%, 0%, 0%)" fill-opacity="1">
<use xlink:href="#glyph-0-0" x="3.315874" y="8.062205"/>
</g>
<g fill="rgb(0%, 0%, 0%)" fill-opacity="1">
<use xlink:href="#glyph-1-0" x="8.464915" y="9.553899"/>
</g>
<g fill="rgb(0%, 0%, 0%)" fill-opacity="1">
<use xlink:href="#glyph-2-0" x="12.694377" y="10.549361"/>
</g>
<g fill="rgb(0%, 0%, 0%)" fill-opacity="1">
<use xlink:href="#glyph-0-1" x="203.376628" y="149.575459"/>
</g>
<g fill="rgb(0%, 0%, 0%)" fill-opacity="1">
<use xlink:href="#glyph-1-1" x="207.724906" y="151.067153"/>
</g>
<path fill="none" stroke-width="0.3985" stroke-linecap="butt" stroke-linejoin="miter" stroke="rgb(0%, 0%, 0%)" stroke-opacity="1" stroke-miterlimit="10" d="M 0.00073987 0.0011694 L 0.00073987 -52.110509 " transform="matrix(0.998457, 0, 0, -0.998457, 20.007074, 141.778511)"/>
<path fill-rule="nonzero" fill="rgb(0%, 0%, 0%)" fill-opacity="1" d="M 20.007812 197.5625 C 20.121094 197.101562 20.757812 195.074219 21.453125 193.808594 L 18.5625 193.808594 C 19.257812 195.074219 19.894531 197.101562 20.007812 197.5625 Z M 20.007812 197.5625 "/>
<g clip-path="url(#clip-2)">
<path fill="none" stroke-width="0.3985" stroke-linecap="butt" stroke-linejoin="miter" stroke="rgb(0%, 0%, 0%)" stroke-opacity="1" stroke-miterlimit="10" d="M 3.759458 0.00073987 C 3.297808 0.114196 1.26733 0.751899 -0.000251328 1.448286 L -0.000251328 -1.446807 C 1.26733 -0.750419 3.297808 -0.112716 3.759458 0.00073987 Z M 3.759458 0.00073987 " transform="matrix(0, 0.998457, 0.998457, 0, 20.007074, 193.808845)"/>
</g>
<g fill="rgb(0%, 0%, 0%)" fill-opacity="1">
<use xlink:href="#glyph-3-0" x="11.519194" y="144.983557"/>
</g>
<g fill="rgb(0%, 0%, 0%)" fill-opacity="1">
<use xlink:href="#glyph-4-0" x="3.957882" y="173.120065"/>
</g>
<g fill="rgb(0%, 0%, 0%)" fill-opacity="1">
<use xlink:href="#glyph-0-2" x="11.694833" y="173.120065"/>
</g>
<path fill="none" stroke-width="0.3985" stroke-linecap="butt" stroke-linejoin="miter" stroke="rgb(0%, 0%, 0%)" stroke-opacity="1" stroke-dasharray="2.98883 2.98883" stroke-miterlimit="10" d="M 0.00073987 -28.34727 L 170.079642 -28.34727 L 170.079642 0.0011694 " transform="matrix(0.998457, 0, 0, -0.998457, 20.007074, 141.778511)"/>
<g fill="rgb(0%, 0%, 0%)" fill-opacity="1">
<use xlink:href="#glyph-3-1" x="187.336422" y="138.263944"/>
</g>
<path fill="none" stroke-width="1.19553" stroke-linecap="butt" stroke-linejoin="miter" stroke="rgb(0%, 79.998779%, 59.999084%)" stroke-opacity="1" stroke-miterlimit="10" d="M 0.00073987 -28.34727 C 7.973983 0.353275 35.434334 99.212884 70.867927 99.212884 C 120.475741 99.212884 158.917884 0.353275 170.079642 -28.34727 " transform="matrix(0.998457, 0, 0, -0.998457, 20.007074, 141.778511)"/>
<path fill="none" stroke-width="0.3985" stroke-linecap="butt" stroke-linejoin="miter" stroke="rgb(0%, 0%, 0%)" stroke-opacity="1" stroke-dasharray="2.98883 2.98883" stroke-miterlimit="10" d="M 70.867927 0.0011694 L 70.867927 99.212884 " transform="matrix(0.998457, 0, 0, -0.998457, 20.007074, 141.778511)"/>
<g fill="rgb(0%, 0%, 0%)" fill-opacity="1">
<use xlink:href="#glyph-0-1" x="67.342904" y="152.142491"/>
</g>
<g fill="rgb(0%, 0%, 0%)" fill-opacity="1">
<use xlink:href="#glyph-5-0" x="72.817441" y="148.532072"/>
</g>
<g fill="rgb(0%, 0%, 0%)" fill-opacity="1">
<use xlink:href="#glyph-3-2" x="80.153102" y="152.142491"/>
</g>
<g fill="rgb(0%, 0%, 0%)" fill-opacity="1">
<use xlink:href="#glyph-3-1" x="90.655381" y="152.142491"/>
</g>
<g fill="rgb(0%, 0%, 0%)" fill-opacity="1">
<use xlink:href="#glyph-4-0" x="97.837277" y="152.142491"/>
</g>
<g fill="rgb(0%, 0%, 0%)" fill-opacity="1">
<use xlink:href="#glyph-0-3" x="107.782511" y="152.142491"/>
</g>
</svg>
