<?xml version="1.0" encoding="UTF-8"?>
<svg xmlns="http://www.w3.org/2000/svg" xmlns:xlink="http://www.w3.org/1999/xlink" width="222.923" height="219.033" viewBox="0 0 222.923 219.033">
<defs>
<g>
<g id="glyph-0-0">
<path d="M 0.875 -0.578125 C 0.84375 -0.4375 0.78125 -0.203125 0.78125 -0.15625 C 0.78125 0.015625 0.921875 0.109375 1.078125 0.109375 C 1.1875 0.109375 1.375 0.03125 1.4375 -0.171875 C 1.453125 -0.203125 1.796875 -1.5625 1.828125 -1.734375 C 1.921875 -2.0625 2.09375 -2.765625 2.15625 -3.03125 C 2.1875 -3.15625 2.46875 -3.625 2.703125 -3.84375 C 2.78125 -3.90625 3.078125 -4.171875 3.5 -4.171875 C 3.765625 -4.171875 3.90625 -4.046875 3.921875 -4.046875 C 3.625 -4 3.40625 -3.765625 3.40625 -3.5 C 3.40625 -3.34375 3.515625 -3.15625 3.78125 -3.15625 C 4.046875 -3.15625 4.328125 -3.390625 4.328125 -3.734375 C 4.328125 -4.09375 4.015625 -4.390625 3.5 -4.390625 C 2.859375 -4.390625 2.421875 -3.90625 2.234375 -3.625 C 2.15625 -4.0625 1.796875 -4.390625 1.328125 -4.390625 C 0.875 -4.390625 0.6875 -4 0.59375 -3.8125 C 0.421875 -3.484375 0.28125 -2.890625 0.28125 -2.859375 C 0.28125 -2.765625 0.390625 -2.765625 0.40625 -2.765625 C 0.5 -2.765625 0.515625 -2.765625 0.578125 -2.984375 C 0.75 -3.6875 0.9375 -4.171875 1.296875 -4.171875 C 1.46875 -4.171875 1.609375 -4.09375 1.609375 -3.703125 C 1.609375 -3.5 1.578125 -3.390625 1.453125 -2.875 Z M 0.875 -0.578125 "/>
</g>
<g id="glyph-0-1">
<path d="M 5.046875 -4.015625 C 5.046875 -4.03125 5 -4.125 5 -4.140625 C 5 -4.15625 5.171875 -4.296875 5.28125 -4.375 L 7.03125 -5.71875 C 7.953125 -6.40625 8.34375 -6.4375 8.640625 -6.46875 C 8.71875 -6.484375 8.828125 -6.484375 8.828125 -6.671875 C 8.828125 -6.703125 8.796875 -6.78125 8.71875 -6.78125 C 8.5 -6.78125 8.25 -6.75 8 -6.75 C 7.65625 -6.75 7.265625 -6.78125 6.90625 -6.78125 C 6.84375 -6.78125 6.71875 -6.78125 6.71875 -6.578125 C 6.71875 -6.515625 6.765625 -6.484375 6.84375 -6.46875 C 7.046875 -6.453125 7.140625 -6.40625 7.140625 -6.265625 C 7.140625 -6.078125 6.84375 -5.859375 6.78125 -5.796875 L 2.921875 -2.828125 L 3.703125 -6.015625 C 3.796875 -6.375 3.8125 -6.46875 4.546875 -6.46875 C 4.796875 -6.46875 4.875 -6.46875 4.875 -6.671875 C 4.875 -6.75 4.796875 -6.78125 4.75 -6.78125 C 4.46875 -6.78125 3.75 -6.75 3.46875 -6.75 C 3.1875 -6.75 2.484375 -6.78125 2.1875 -6.78125 C 2.125 -6.78125 2 -6.78125 2 -6.59375 C 2 -6.46875 2.078125 -6.46875 2.28125 -6.46875 C 2.40625 -6.46875 2.59375 -6.453125 2.703125 -6.453125 C 2.875 -6.421875 2.921875 -6.40625 2.921875 -6.296875 C 2.921875 -6.25 2.921875 -6.21875 2.890625 -6.109375 L 1.5625 -0.78125 C 1.453125 -0.390625 1.4375 -0.3125 0.65625 -0.3125 C 0.484375 -0.3125 0.375 -0.3125 0.375 -0.125 C 0.375 0 0.5 0 0.53125 0 C 0.796875 0 1.515625 -0.03125 1.78125 -0.03125 C 2 -0.03125 2.21875 -0.015625 2.421875 -0.015625 C 2.640625 -0.015625 2.859375 0 3.0625 0 C 3.140625 0 3.265625 0 3.265625 -0.203125 C 3.265625 -0.3125 3.171875 -0.3125 2.984375 -0.3125 C 2.625 -0.3125 2.34375 -0.3125 2.34375 -0.484375 C 2.34375 -0.5625 2.40625 -0.78125 2.4375 -0.921875 C 2.5625 -1.4375 2.703125 -1.96875 2.828125 -2.484375 L 4.3125 -3.625 L 5.453125 -0.96875 C 5.578125 -0.6875 5.578125 -0.671875 5.578125 -0.609375 C 5.578125 -0.3125 5.15625 -0.3125 5.0625 -0.3125 C 4.953125 -0.3125 4.84375 -0.3125 4.84375 -0.109375 C 4.84375 0 4.953125 0 4.984375 0 C 5.375 0 5.796875 -0.03125 6.1875 -0.03125 C 6.40625 -0.03125 6.9375 0 7.15625 0 C 7.21875 0 7.34375 0 7.34375 -0.203125 C 7.34375 -0.3125 7.234375 -0.3125 7.140625 -0.3125 C 6.734375 -0.3125 6.609375 -0.40625 6.453125 -0.75 Z M 5.046875 -4.015625 "/>
</g>
<g id="glyph-0-2">
<path d="M 3 -3.140625 L 4.6875 -3.140625 C 6.109375 -3.140625 7.484375 -4.171875 7.484375 -5.28125 C 7.484375 -6.046875 6.828125 -6.78125 5.53125 -6.78125 L 2.3125 -6.78125 C 2.125 -6.78125 2.015625 -6.78125 2.015625 -6.59375 C 2.015625 -6.46875 2.109375 -6.46875 2.296875 -6.46875 C 2.4375 -6.46875 2.609375 -6.453125 2.734375 -6.453125 C 2.890625 -6.421875 2.953125 -6.40625 2.953125 -6.296875 C 2.953125 -6.25 2.9375 -6.21875 2.90625 -6.109375 L 1.578125 -0.78125 C 1.484375 -0.390625 1.453125 -0.3125 0.671875 -0.3125 C 0.5 -0.3125 0.390625 -0.3125 0.390625 -0.125 C 0.390625 0 0.515625 0 0.546875 0 C 0.828125 0 1.53125 -0.03125 1.8125 -0.03125 C 2.015625 -0.03125 2.234375 -0.015625 2.4375 -0.015625 C 2.65625 -0.015625 2.875 0 3.078125 0 C 3.15625 0 3.28125 0 3.28125 -0.203125 C 3.28125 -0.3125 3.1875 -0.3125 3 -0.3125 C 2.640625 -0.3125 2.359375 -0.3125 2.359375 -0.484375 C 2.359375 -0.546875 2.375 -0.59375 2.390625 -0.65625 Z M 3.71875 -6.09375 C 3.8125 -6.4375 3.828125 -6.46875 4.25 -6.46875 L 5.203125 -6.46875 C 6.03125 -6.46875 6.5625 -6.203125 6.5625 -5.515625 C 6.5625 -5.125 6.359375 -4.28125 5.96875 -3.921875 C 5.484375 -3.46875 4.875 -3.390625 4.4375 -3.390625 L 3.046875 -3.390625 Z M 3.71875 -6.09375 "/>
</g>
<g id="glyph-0-3">
<path d="M 9.1875 -6.015625 C 9.28125 -6.375 9.296875 -6.46875 10.046875 -6.46875 C 10.265625 -6.46875 10.359375 -6.46875 10.359375 -6.671875 C 10.359375 -6.78125 10.265625 -6.78125 10.09375 -6.78125 L 8.78125 -6.78125 C 8.515625 -6.78125 8.515625 -6.78125 8.390625 -6.59375 L 4.765625 -0.9375 L 4 -6.546875 C 3.96875 -6.78125 3.953125 -6.78125 3.6875 -6.78125 L 2.328125 -6.78125 C 2.140625 -6.78125 2.03125 -6.78125 2.03125 -6.59375 C 2.03125 -6.46875 2.125 -6.46875 2.328125 -6.46875 C 2.453125 -6.46875 2.625 -6.453125 2.75 -6.453125 C 2.90625 -6.421875 2.96875 -6.40625 2.96875 -6.296875 C 2.96875 -6.25 2.953125 -6.21875 2.921875 -6.109375 L 1.671875 -1.046875 C 1.5625 -0.65625 1.40625 -0.34375 0.59375 -0.3125 C 0.546875 -0.3125 0.421875 -0.296875 0.421875 -0.125 C 0.421875 -0.03125 0.46875 0 0.5625 0 C 0.875 0 1.21875 -0.03125 1.546875 -0.03125 C 1.890625 -0.03125 2.25 0 2.5625 0 C 2.625 0 2.75 0 2.75 -0.203125 C 2.75 -0.3125 2.640625 -0.3125 2.5625 -0.3125 C 2 -0.3125 1.890625 -0.515625 1.890625 -0.75 C 1.890625 -0.8125 1.90625 -0.859375 1.9375 -0.96875 L 3.28125 -6.375 L 3.296875 -6.375 L 4.140625 -0.234375 C 4.171875 -0.109375 4.171875 0 4.296875 0 C 4.40625 0 4.46875 -0.109375 4.515625 -0.171875 L 8.515625 -6.453125 L 8.53125 -6.453125 L 7.109375 -0.78125 C 7.015625 -0.390625 7 -0.3125 6.21875 -0.3125 C 6.046875 -0.3125 5.9375 -0.3125 5.9375 -0.125 C 5.9375 0 6.046875 0 6.078125 0 C 6.359375 0 7.03125 -0.03125 7.3125 -0.03125 C 7.71875 -0.03125 8.140625 0 8.546875 0 C 8.609375 0 8.734375 0 8.734375 -0.203125 C 8.734375 -0.3125 8.65625 -0.3125 8.46875 -0.3125 C 8.09375 -0.3125 7.8125 -0.3125 7.8125 -0.484375 C 7.8125 -0.53125 7.8125 -0.546875 7.875 -0.71875 Z M 9.1875 -6.015625 "/>
</g>
<g id="glyph-0-4">
<path d="M 4.671875 -3.734375 C 4.6875 -3.796875 4.703125 -3.84375 4.703125 -3.921875 C 4.703125 -4.09375 4.578125 -4.1875 4.421875 -4.1875 C 4.3125 -4.1875 4.046875 -4.125 4.015625 -3.765625 C 3.828125 -4.125 3.484375 -4.390625 3.078125 -4.390625 C 1.953125 -4.390625 0.71875 -3 0.71875 -1.5625 C 0.71875 -0.578125 1.328125 0 2.046875 0 C 2.625 0 3.09375 -0.46875 3.1875 -0.578125 L 3.203125 -0.5625 C 3 0.3125 2.875 0.71875 2.875 0.75 C 2.84375 0.828125 2.5 1.8125 1.453125 1.8125 C 1.265625 1.8125 0.9375 1.8125 0.65625 1.71875 C 0.953125 1.625 1.0625 1.375 1.0625 1.203125 C 1.0625 1.046875 0.953125 0.859375 0.6875 0.859375 C 0.46875 0.859375 0.15625 1.03125 0.15625 1.421875 C 0.15625 1.828125 0.515625 2.03125 1.46875 2.03125 C 2.703125 2.03125 3.421875 1.265625 3.578125 0.671875 Z M 3.390625 -1.265625 C 3.328125 -1.015625 3.09375 -0.765625 2.875 -0.578125 C 2.671875 -0.390625 2.359375 -0.21875 2.078125 -0.21875 C 1.578125 -0.21875 1.421875 -0.734375 1.421875 -1.125 C 1.421875 -1.609375 1.71875 -2.78125 1.984375 -3.28125 C 2.25 -3.765625 2.671875 -4.171875 3.09375 -4.171875 C 3.75 -4.171875 3.890625 -3.359375 3.890625 -3.3125 C 3.890625 -3.265625 3.875 -3.203125 3.859375 -3.171875 Z M 3.390625 -1.265625 "/>
</g>
<g id="glyph-1-0">
<path d="M 2.234375 -1.734375 C 2.8125 -1.984375 3.0625 -2.078125 3.234375 -2.15625 C 3.375 -2.21875 3.4375 -2.234375 3.4375 -2.375 C 3.4375 -2.484375 3.34375 -2.59375 3.21875 -2.59375 C 3.171875 -2.59375 3.15625 -2.59375 3.078125 -2.53125 L 2.125 -1.90625 L 2.234375 -2.921875 C 2.25 -3.046875 2.234375 -3.21875 2.03125 -3.21875 C 1.9375 -3.21875 1.8125 -3.171875 1.8125 -3.015625 C 1.8125 -2.953125 1.84375 -2.75 1.84375 -2.671875 C 1.859375 -2.5625 1.90625 -2.0625 1.921875 -1.90625 L 0.984375 -2.53125 C 0.921875 -2.578125 0.890625 -2.59375 0.828125 -2.59375 C 0.703125 -2.59375 0.625 -2.484375 0.625 -2.375 C 0.625 -2.234375 0.703125 -2.203125 0.765625 -2.171875 L 1.8125 -1.734375 C 1.234375 -1.484375 0.984375 -1.390625 0.8125 -1.296875 C 0.6875 -1.25 0.625 -1.21875 0.625 -1.09375 C 0.625 -0.96875 0.703125 -0.875 0.828125 -0.875 C 0.875 -0.875 0.890625 -0.875 0.984375 -0.921875 L 1.921875 -1.5625 L 1.8125 -0.4375 C 1.8125 -0.296875 1.9375 -0.234375 2.03125 -0.234375 C 2.109375 -0.234375 2.234375 -0.296875 2.234375 -0.4375 C 2.234375 -0.5 2.21875 -0.71875 2.203125 -0.78125 C 2.1875 -0.90625 2.140625 -1.40625 2.125 -1.5625 L 2.96875 -1 C 3.140625 -0.875 3.15625 -0.875 3.21875 -0.875 C 3.34375 -0.875 3.4375 -0.96875 3.4375 -1.09375 C 3.4375 -1.234375 3.34375 -1.265625 3.28125 -1.296875 Z M 2.234375 -1.734375 "/>
</g>
<g id="glyph-2-0">
<path d="M 3.96875 -2.78125 C 3.9375 -2.84375 3.921875 -2.859375 3.921875 -2.875 C 3.921875 -2.890625 3.9375 -2.890625 4.09375 -3 L 4.796875 -3.5 C 5.703125 -4.140625 6.140625 -4.453125 6.625 -4.484375 C 6.703125 -4.5 6.796875 -4.5 6.796875 -4.640625 C 6.796875 -4.703125 6.75 -4.734375 6.703125 -4.734375 C 6.5625 -4.734375 6.375 -4.703125 6.21875 -4.703125 C 6.03125 -4.703125 5.578125 -4.734375 5.390625 -4.734375 C 5.34375 -4.734375 5.234375 -4.734375 5.234375 -4.578125 C 5.234375 -4.578125 5.234375 -4.5 5.34375 -4.484375 C 5.421875 -4.484375 5.515625 -4.46875 5.515625 -4.390625 C 5.515625 -4.265625 5.296875 -4.109375 5.203125 -4.046875 L 2.3125 -2.015625 L 2.859375 -4.203125 C 2.921875 -4.4375 2.9375 -4.484375 3.46875 -4.484375 C 3.59375 -4.484375 3.6875 -4.484375 3.6875 -4.640625 C 3.6875 -4.703125 3.640625 -4.734375 3.578125 -4.734375 C 3.375 -4.734375 2.859375 -4.703125 2.65625 -4.703125 C 2.546875 -4.703125 2.296875 -4.703125 2.1875 -4.71875 C 2.046875 -4.71875 1.875 -4.734375 1.75 -4.734375 C 1.703125 -4.734375 1.609375 -4.734375 1.609375 -4.578125 C 1.609375 -4.484375 1.671875 -4.484375 1.828125 -4.484375 C 1.9375 -4.484375 1.96875 -4.484375 2.09375 -4.46875 C 2.234375 -4.453125 2.25 -4.453125 2.25 -4.375 C 2.25 -4.359375 2.25 -4.328125 2.21875 -4.21875 L 1.296875 -0.546875 C 1.234375 -0.3125 1.234375 -0.25 0.6875 -0.25 C 0.5625 -0.25 0.484375 -0.25 0.484375 -0.09375 C 0.484375 -0.09375 0.484375 0 0.59375 0 C 0.796875 0 1.296875 -0.03125 1.484375 -0.03125 C 1.609375 -0.03125 1.859375 -0.03125 1.96875 -0.015625 C 2.109375 -0.015625 2.28125 0 2.421875 0 C 2.453125 0 2.5625 0 2.5625 -0.15625 C 2.5625 -0.25 2.484375 -0.25 2.34375 -0.25 C 2.328125 -0.25 2.203125 -0.25 2.078125 -0.265625 C 1.921875 -0.28125 1.921875 -0.296875 1.921875 -0.375 C 1.921875 -0.421875 1.984375 -0.6875 2.234375 -1.703125 L 3.390625 -2.515625 L 4.390625 -0.5625 C 4.453125 -0.46875 4.453125 -0.46875 4.453125 -0.4375 C 4.453125 -0.265625 4.25 -0.25 4.125 -0.25 C 4.046875 -0.25 3.953125 -0.25 3.953125 -0.09375 C 3.953125 -0.09375 3.953125 0 4.0625 0 C 4.265625 0 4.765625 -0.03125 4.953125 -0.03125 C 5.15625 -0.03125 5.4375 0 5.640625 0 C 5.71875 0 5.765625 -0.046875 5.765625 -0.140625 C 5.765625 -0.25 5.6875 -0.25 5.609375 -0.25 C 5.484375 -0.25 5.265625 -0.25 5.15625 -0.484375 Z M 3.96875 -2.78125 "/>
</g>
<g id="glyph-3-0">
<path d="M 2.984375 -1.578125 C 2.984375 -1.9375 2.984375 -3.296875 1.6875 -3.296875 C 0.390625 -3.296875 0.390625 -1.9375 0.390625 -1.578125 C 0.390625 -1.21875 0.390625 0.109375 1.6875 0.109375 C 2.984375 0.109375 2.984375 -1.21875 2.984375 -1.578125 Z M 1.6875 -0.046875 C 1.5 -0.046875 1.078125 -0.125 0.953125 -0.625 C 0.890625 -0.890625 0.890625 -1.234375 0.890625 -1.640625 C 0.890625 -2.015625 0.890625 -2.359375 0.96875 -2.640625 C 1.09375 -3.046875 1.46875 -3.140625 1.6875 -3.140625 C 2.046875 -3.140625 2.3125 -2.953125 2.40625 -2.59375 C 2.484375 -2.34375 2.484375 -1.9375 2.484375 -1.640625 C 2.484375 -1.3125 2.484375 -0.90625 2.40625 -0.609375 C 2.28125 -0.125 1.875 -0.046875 1.6875 -0.046875 Z M 1.6875 -0.046875 "/>
</g>
<g id="glyph-3-1">
<path d="M 1.96875 -3.15625 C 1.96875 -3.296875 1.953125 -3.296875 1.796875 -3.296875 C 1.4375 -2.984375 0.890625 -2.984375 0.796875 -2.984375 L 0.703125 -2.984375 L 0.703125 -2.765625 L 0.796875 -2.765625 C 0.90625 -2.765625 1.234375 -2.78125 1.515625 -2.90625 L 1.515625 -0.421875 C 1.515625 -0.265625 1.515625 -0.21875 0.984375 -0.21875 L 0.75 -0.21875 L 0.75 0 C 1.015625 -0.015625 1.453125 -0.015625 1.75 -0.015625 C 2.03125 -0.015625 2.46875 -0.015625 2.75 0 L 2.75 -0.21875 L 2.5 -0.21875 C 1.96875 -0.21875 1.96875 -0.265625 1.96875 -0.421875 Z M 1.96875 -3.15625 "/>
</g>
<g id="glyph-4-0">
<path d="M 3.953125 -6.90625 C 3.90625 -7.03125 3.875 -7.109375 3.71875 -7.109375 C 3.5625 -7.109375 3.53125 -7.046875 3.484375 -6.90625 L 1.421875 -0.96875 C 1.25 -0.46875 0.859375 -0.3125 0.3125 -0.3125 L 0.3125 0 C 0.546875 -0.015625 0.96875 -0.03125 1.328125 -0.03125 C 1.640625 -0.03125 2.15625 -0.015625 2.46875 0 L 2.46875 -0.3125 C 1.96875 -0.3125 1.71875 -0.5625 1.71875 -0.8125 C 1.71875 -0.84375 1.734375 -0.9375 1.75 -0.96875 L 2.203125 -2.265625 L 4.65625 -2.265625 L 5.171875 -0.75 C 5.1875 -0.703125 5.203125 -0.640625 5.203125 -0.609375 C 5.203125 -0.3125 4.65625 -0.3125 4.390625 -0.3125 L 4.390625 0 C 4.75 -0.03125 5.4375 -0.03125 5.8125 -0.03125 C 6.234375 -0.03125 6.703125 -0.015625 7.109375 0 L 7.109375 -0.3125 L 6.9375 -0.3125 C 6.34375 -0.3125 6.203125 -0.375 6.09375 -0.703125 Z M 3.421875 -5.796875 L 4.546875 -2.5625 L 2.3125 -2.5625 Z M 3.421875 -5.796875 "/>
</g>
<g id="glyph-4-1">
<path d="M 2.203125 -3.625 L 2.203125 -6.078125 C 2.203125 -6.40625 2.21875 -6.46875 2.6875 -6.46875 L 3.921875 -6.46875 C 4.875 -6.46875 5.234375 -5.625 5.234375 -5.09375 C 5.234375 -4.46875 4.75 -3.625 3.640625 -3.625 Z M 4.546875 -3.546875 C 5.5 -3.734375 6.1875 -4.359375 6.1875 -5.09375 C 6.1875 -5.96875 5.28125 -6.78125 3.984375 -6.78125 L 0.359375 -6.78125 L 0.359375 -6.46875 L 0.59375 -6.46875 C 1.359375 -6.46875 1.375 -6.359375 1.375 -6 L 1.375 -0.78125 C 1.375 -0.421875 1.359375 -0.3125 0.59375 -0.3125 L 0.359375 -0.3125 L 0.359375 0 L 4.25 0 C 5.5625 0 6.453125 -0.890625 6.453125 -1.8125 C 6.453125 -2.671875 5.640625 -3.421875 4.546875 -3.546875 Z M 3.921875 -0.3125 L 2.6875 -0.3125 C 2.21875 -0.3125 2.203125 -0.375 2.203125 -0.703125 L 2.203125 -3.40625 L 4.0625 -3.40625 C 5.046875 -3.40625 5.46875 -2.484375 5.46875 -1.828125 C 5.46875 -1.125 4.953125 -0.3125 3.921875 -0.3125 Z M 3.921875 -0.3125 "/>
</g>
<g id="glyph-4-2">
<path d="M 0.5625 -3.390625 C 0.5625 -1.34375 2.15625 0.21875 4.015625 0.21875 C 5.625 0.21875 6.59375 -1.15625 6.59375 -2.3125 C 6.59375 -2.40625 6.59375 -2.484375 6.46875 -2.484375 C 6.359375 -2.484375 6.359375 -2.421875 6.34375 -2.328125 C 6.265625 -0.90625 5.203125 -0.09375 4.125 -0.09375 C 3.515625 -0.09375 1.578125 -0.421875 1.578125 -3.390625 C 1.578125 -6.34375 3.515625 -6.6875 4.125 -6.6875 C 5.203125 -6.6875 6.078125 -5.78125 6.28125 -4.328125 C 6.296875 -4.203125 6.296875 -4.171875 6.4375 -4.171875 C 6.59375 -4.171875 6.59375 -4.203125 6.59375 -4.40625 L 6.59375 -6.75 C 6.59375 -6.921875 6.59375 -7 6.484375 -7 C 6.453125 -7 6.40625 -7 6.328125 -6.875 L 5.828125 -6.140625 C 5.46875 -6.5 4.953125 -7 4.015625 -7 C 2.15625 -7 0.5625 -5.421875 0.5625 -3.390625 Z M 0.5625 -3.390625 "/>
</g>
<g id="glyph-4-3">
<path d="M 1.34375 -0.78125 C 1.34375 -0.421875 1.328125 -0.3125 0.5625 -0.3125 L 0.328125 -0.3125 L 0.328125 0 L 6.046875 0 L 6.46875 -2.5625 L 6.21875 -2.5625 C 5.96875 -1.03125 5.75 -0.3125 4.03125 -0.3125 L 2.71875 -0.3125 C 2.25 -0.3125 2.234375 -0.375 2.234375 -0.703125 L 2.234375 -3.359375 L 3.125 -3.359375 C 4.09375 -3.359375 4.203125 -3.03125 4.203125 -2.1875 L 4.4375 -2.1875 L 4.4375 -4.828125 L 4.203125 -4.828125 C 4.203125 -3.96875 4.09375 -3.65625 3.125 -3.65625 L 2.234375 -3.65625 L 2.234375 -6.046875 C 2.234375 -6.375 2.25 -6.4375 2.71875 -6.4375 L 4 -6.4375 C 5.515625 -6.4375 5.78125 -5.890625 5.9375 -4.515625 L 6.1875 -4.515625 L 5.90625 -6.75 L 0.328125 -6.75 L 0.328125 -6.4375 L 0.5625 -6.4375 C 1.328125 -6.4375 1.34375 -6.328125 1.34375 -5.96875 Z M 1.34375 -0.78125 "/>
</g>
<g id="glyph-4-4">
<path d="M 0.34375 -6.78125 L 0.34375 -6.46875 L 0.578125 -6.46875 C 1.34375 -6.46875 1.375 -6.359375 1.375 -6 L 1.375 -0.78125 C 1.375 -0.421875 1.34375 -0.3125 0.578125 -0.3125 L 0.34375 -0.3125 L 0.34375 0 L 3.984375 0 C 5.640625 0 7.015625 -1.46875 7.015625 -3.328125 C 7.015625 -5.21875 5.671875 -6.78125 3.984375 -6.78125 Z M 2.703125 -0.3125 C 2.25 -0.3125 2.21875 -0.375 2.21875 -0.703125 L 2.21875 -6.078125 C 2.21875 -6.40625 2.25 -6.46875 2.703125 -6.46875 L 3.703125 -6.46875 C 4.3125 -6.46875 5 -6.25 5.5 -5.546875 C 5.9375 -4.953125 6.015625 -4.109375 6.015625 -3.328125 C 6.015625 -2.234375 5.828125 -1.640625 5.484375 -1.15625 C 5.28125 -0.890625 4.71875 -0.3125 3.703125 -0.3125 Z M 2.703125 -0.3125 "/>
</g>
<g id="glyph-5-0">
<path d="M 3.578125 -2.21875 C 3.578125 -2.96875 3.484375 -3.53125 3.171875 -4.015625 C 2.953125 -4.328125 2.53125 -4.609375 1.96875 -4.609375 C 0.359375 -4.609375 0.359375 -2.71875 0.359375 -2.21875 C 0.359375 -1.71875 0.359375 0.140625 1.96875 0.140625 C 3.578125 0.140625 3.578125 -1.71875 3.578125 -2.21875 Z M 1.96875 -0.0625 C 1.65625 -0.0625 1.234375 -0.25 1.09375 -0.8125 C 0.984375 -1.21875 0.984375 -1.796875 0.984375 -2.296875 C 0.984375 -2.8125 0.984375 -3.34375 1.09375 -3.71875 C 1.234375 -4.265625 1.6875 -4.40625 1.96875 -4.40625 C 2.34375 -4.40625 2.703125 -4.1875 2.828125 -3.78125 C 2.9375 -3.40625 2.953125 -2.90625 2.953125 -2.296875 C 2.953125 -1.796875 2.953125 -1.28125 2.859375 -0.84375 C 2.71875 -0.203125 2.25 -0.0625 1.96875 -0.0625 Z M 1.96875 -0.0625 "/>
</g>
<g id="glyph-5-1">
<path d="M 2.328125 -4.40625 C 2.328125 -4.59375 2.3125 -4.609375 2.109375 -4.609375 C 1.671875 -4.171875 1.046875 -4.15625 0.75 -4.15625 L 0.75 -3.90625 C 0.921875 -3.90625 1.375 -3.90625 1.765625 -4.109375 L 1.765625 -0.5625 C 1.765625 -0.34375 1.765625 -0.25 1.0625 -0.25 L 0.8125 -0.25 L 0.8125 0 C 0.921875 0 1.78125 -0.03125 2.046875 -0.03125 C 2.25 -0.03125 3.125 0 3.28125 0 L 3.28125 -0.25 L 3.015625 -0.25 C 2.328125 -0.25 2.328125 -0.34375 2.328125 -0.5625 Z M 2.328125 -4.40625 "/>
</g>
</g>
<clipPath id="clip-0">
<path clip-rule="nonzero" d="M 197 190 L 222.394531 190 L 222.394531 216 L 197 216 Z M 197 190 "/>
</clipPath>
<clipPath id="clip-1">
<path clip-rule="nonzero" d="M 16.96875 16 L 190 16 L 190 192 L 16.96875 192 Z M 16.96875 16 "/>
</clipPath>
<clipPath id="clip-2">
<path clip-rule="nonzero" d="M 16.96875 16 L 135 16 L 135 192 L 16.96875 192 Z M 16.96875 16 "/>
</clipPath>
</defs>
<path fill="none" stroke-width="0.79701" stroke-linecap="butt" stroke-linejoin="miter" stroke="rgb(0%, 0%, 0%)" stroke-opacity="1" stroke-miterlimit="10" d="M 0.0000777508 192.249989 L 0.0000777508 -0.00129306 L 192.25136 -0.00129306 " transform="matrix(0.995605, 0, 0, -0.995605, 16.968673, 202.994806)"/>
<path fill-rule="nonzero" fill="rgb(0%, 0%, 0%)" fill-opacity="1" stroke-width="0.79701" stroke-linecap="butt" stroke-linejoin="miter" stroke="rgb(0%, 0%, 0%)" stroke-opacity="1" stroke-miterlimit="10" d="M 4.53482 -0.0000777508 C 3.977683 0.137245 1.529422 0.921944 -0.000741286 1.773342 L -0.000741286 -1.773498 C 1.529422 -0.922099 3.977683 -0.1374 4.53482 -0.0000777508 Z M 4.53482 -0.0000777508 " transform="matrix(0, -0.995605, -0.995605, 0, 16.968673, 11.589106)"/>
<path fill-rule="nonzero" fill="rgb(0%, 0%, 0%)" fill-opacity="1" d="M 212.886719 202.996094 C 212.332031 202.855469 209.898438 202.078125 208.375 201.230469 L 208.375 204.757812 C 209.898438 203.910156 212.332031 203.132812 212.886719 202.996094 Z M 212.886719 202.996094 "/>
<g clip-path="url(#clip-0)">
<path fill="none" stroke-width="0.79701" stroke-linecap="butt" stroke-linejoin="miter" stroke="rgb(0%, 0%, 0%)" stroke-opacity="1" stroke-miterlimit="10" d="M 4.532267 -0.00129306 C 3.975131 0.139953 1.530793 0.920728 0.000629521 1.772127 L 0.000629521 -1.77079 C 1.530793 -0.919391 3.975131 -0.138615 4.532267 -0.00129306 Z M 4.532267 -0.00129306 " transform="matrix(0.995605, 0, 0, -0.995605, 208.374373, 202.994806)"/>
</g>
<g fill="rgb(0%, 0%, 0%)" fill-opacity="1">
<use xlink:href="#glyph-0-0" x="8.51599" y="7.576551"/>
</g>
<g fill="rgb(0%, 0%, 0%)" fill-opacity="1">
<use xlink:href="#glyph-0-1" x="209.954666" y="213.47454"/>
</g>
<path fill="none" stroke-width="1.19553" stroke-linecap="butt" stroke-linejoin="miter" stroke="rgb(100%, 45.999146%, 8.999634%)" stroke-opacity="1" stroke-miterlimit="10" d="M 0.0000777508 70.868807 L 170.079686 70.868807 " transform="matrix(0.995605, 0, 0, -0.995605, 16.968673, 202.994806)"/>
<g fill="rgb(0%, 0%, 0%)" fill-opacity="1">
<use xlink:href="#glyph-0-0" x="3.757" y="135.855218"/>
</g>
<g fill="rgb(0%, 0%, 0%)" fill-opacity="1">
<use xlink:href="#glyph-1-0" x="8.508025" y="132.255112"/>
</g>
<g clip-path="url(#clip-1)">
<path fill="none" stroke-width="1.19553" stroke-linecap="butt" stroke-linejoin="miter" stroke="rgb(100%, 0%, 0%)" stroke-opacity="1" stroke-miterlimit="10" d="M 0.0000777508 170.082239 L 155.90802 28.345962 " transform="matrix(0.995605, 0, 0, -0.995605, 16.968673, 202.994806)"/>
</g>
<g fill="rgb(0%, 0%, 0%)" fill-opacity="1">
<use xlink:href="#glyph-0-2" x="176.090173" y="176.921915"/>
</g>
<g fill="rgb(0%, 0%, 0%)" fill-opacity="1">
<use xlink:href="#glyph-0-3" x="183.836764" y="176.921915"/>
</g>
<g fill="rgb(0%, 0%, 0%)" fill-opacity="1">
<use xlink:href="#glyph-0-4" x="194.540152" y="176.921915"/>
</g>
<g fill="rgb(0%, 0%, 0%)" fill-opacity="1">
<use xlink:href="#glyph-2-0" x="199.270834" y="178.409348"/>
</g>
<g fill="rgb(0%, 0%, 0%)" fill-opacity="1">
<use xlink:href="#glyph-3-0" x="205.935411" y="179.40097"/>
</g>
<g clip-path="url(#clip-2)">
<path fill="none" stroke-width="1.19553" stroke-linecap="butt" stroke-linejoin="miter" stroke="rgb(100%, 0%, 0%)" stroke-opacity="1" stroke-miterlimit="10" d="M -54.567898 170.082239 L 101.340044 28.345962 " transform="matrix(0.995605, 0, 0, -0.995605, 16.968673, 202.994806)"/>
</g>
<path fill-rule="nonzero" fill="rgb(0%, 0%, 0%)" fill-opacity="1" stroke-width="0.3985" stroke-linecap="butt" stroke-linejoin="miter" stroke="rgb(0%, 0%, 0%)" stroke-opacity="1" stroke-miterlimit="10" d="M 111.129166 70.868807 C 111.129166 71.967386 110.234609 72.858019 109.13603 72.858019 C 108.033528 72.858019 107.142894 71.967386 107.142894 70.868807 C 107.142894 69.766305 108.033528 68.875671 109.13603 68.875671 C 110.234609 68.875671 111.129166 69.766305 111.129166 70.868807 Z M 111.129166 70.868807 " transform="matrix(0.995605, 0, 0, -0.995605, 16.968673, 202.994806)"/>
<path fill-rule="nonzero" fill="rgb(0%, 0%, 0%)" fill-opacity="1" stroke-width="0.3985" stroke-linecap="butt" stroke-linejoin="miter" stroke="rgb(0%, 0%, 0%)" stroke-opacity="1" stroke-miterlimit="10" d="M 57.267419 70.868807 C 57.267419 71.967386 56.376785 72.858019 55.274283 72.858019 C 54.175704 72.858019 53.285071 71.967386 53.285071 70.868807 C 53.285071 69.766305 54.175704 68.875671 55.274283 68.875671 C 56.376785 68.875671 57.267419 69.766305 57.267419 70.868807 Z M 57.267419 70.868807 " transform="matrix(0.995605, 0, 0, -0.995605, 16.968673, 202.994806)"/>
<path fill-rule="nonzero" fill="rgb(0%, 0%, 0%)" fill-opacity="1" stroke-width="0.3985" stroke-linecap="butt" stroke-linejoin="miter" stroke="rgb(0%, 0%, 0%)" stroke-opacity="1" stroke-miterlimit="10" d="M 57.267419 119.908578 C 57.267419 121.007157 56.376785 121.89779 55.274283 121.89779 C 54.175704 121.89779 53.285071 121.007157 53.285071 119.908578 C 53.285071 118.806076 54.175704 117.915442 55.274283 117.915442 C 56.376785 117.915442 57.267419 118.806076 57.267419 119.908578 Z M 57.267419 119.908578 " transform="matrix(0.995605, 0, 0, -0.995605, 16.968673, 202.994806)"/>
<path fill="none" stroke-width="0.3985" stroke-linecap="butt" stroke-linejoin="miter" stroke="rgb(0%, 0%, 0%)" stroke-opacity="1" stroke-dasharray="2.98883 2.98883" stroke-miterlimit="10" d="M 109.13603 70.868807 L 109.13603 -0.00129306 " transform="matrix(0.995605, 0, 0, -0.995605, 16.968673, 202.994806)"/>
<g fill="rgb(0%, 0%, 0%)" fill-opacity="1">
<use xlink:href="#glyph-4-0" x="129.127507" y="128.935767"/>
</g>
<g fill="rgb(0%, 0%, 0%)" fill-opacity="1">
<use xlink:href="#glyph-0-1" x="119.186396" y="213.276415"/>
</g>
<g fill="rgb(0%, 0%, 0%)" fill-opacity="1">
<use xlink:href="#glyph-5-0" x="127.610206" y="214.764843"/>
</g>
<path fill="none" stroke-width="0.3985" stroke-linecap="butt" stroke-linejoin="miter" stroke="rgb(0%, 0%, 0%)" stroke-opacity="1" stroke-dasharray="2.98883 2.98883" stroke-miterlimit="10" d="M 55.274283 70.868807 L 55.274283 -0.00129306 " transform="matrix(0.995605, 0, 0, -0.995605, 16.968673, 202.994806)"/>
<g fill="rgb(0%, 0%, 0%)" fill-opacity="1">
<use xlink:href="#glyph-4-1" x="75.506237" y="128.935767"/>
</g>
<g fill="rgb(0%, 0%, 0%)" fill-opacity="1">
<use xlink:href="#glyph-0-1" x="65.56413" y="213.276415"/>
</g>
<g fill="rgb(0%, 0%, 0%)" fill-opacity="1">
<use xlink:href="#glyph-5-1" x="73.988936" y="214.764843"/>
</g>
<g fill="rgb(0%, 0%, 0%)" fill-opacity="1">
<use xlink:href="#glyph-4-2" x="6.30077" y="37.052419"/>
</g>
<path fill="none" stroke-width="0.3985" stroke-linecap="butt" stroke-linejoin="miter" stroke="rgb(0%, 0%, 0%)" stroke-opacity="1" stroke-dasharray="2.98883 2.98883" stroke-miterlimit="10" d="M 0.0000777508 119.908578 L 55.274283 119.908578 L 55.274283 70.868807 " transform="matrix(0.995605, 0, 0, -0.995605, 16.968673, 202.994806)"/>
<g fill="rgb(0%, 0%, 0%)" fill-opacity="1">
<use xlink:href="#glyph-4-3" x="6.713946" y="87.004886"/>
</g>
<g fill="rgb(0%, 0%, 0%)" fill-opacity="1">
<use xlink:href="#glyph-4-4" x="75.506237" y="80.11132"/>
</g>
<path fill-rule="nonzero" fill="rgb(100%, 100%, 100%)" fill-opacity="1" stroke-width="0.3985" stroke-linecap="butt" stroke-linejoin="miter" stroke="rgb(100%, 100%, 100%)" stroke-opacity="1" stroke-miterlimit="10" d="M 117.956048 28.345962 C 117.956048 32.748124 114.38959 36.318505 109.987428 36.318505 C 105.585266 36.318505 102.014885 32.748124 102.014885 28.345962 C 102.014885 23.9438 105.585266 20.377343 109.987428 20.377343 C 114.38959 20.377343 117.956048 23.9438 117.956048 28.345962 Z M 117.956048 28.345962 " transform="matrix(0.995605, 0, 0, -0.995605, 16.968673, 202.994806)"/>
<g fill="rgb(0%, 0%, 0%)" fill-opacity="1">
<use xlink:href="#glyph-0-2" x="121.365774" y="178.332686"/>
</g>
<g fill="rgb(0%, 0%, 0%)" fill-opacity="1">
<use xlink:href="#glyph-0-3" x="129.112365" y="178.332686"/>
</g>
<g fill="rgb(0%, 0%, 0%)" fill-opacity="1">
<use xlink:href="#glyph-0-4" x="139.815752" y="178.332686"/>
</g>
<g fill="rgb(0%, 0%, 0%)" fill-opacity="1">
<use xlink:href="#glyph-2-0" x="144.54743" y="179.820119"/>
</g>
<g fill="rgb(0%, 0%, 0%)" fill-opacity="1">
<use xlink:href="#glyph-3-1" x="151.212007" y="180.812737"/>
</g>
</svg>
