<?xml version="1.0" encoding="UTF-8"?>
<svg xmlns="http://www.w3.org/2000/svg" xmlns:xlink="http://www.w3.org/1999/xlink" width="192.21" height="190.65" viewBox="0 0 192.21 190.65">
<defs>
<g>
<g id="glyph-0-0">
<path d="M 7.546875 -6.890625 C 7.546875 -6.921875 7.515625 -7 7.4375 -7 C 7.40625 -7 7.390625 -6.984375 7.28125 -6.875 L 6.59375 -6.109375 C 6.5 -6.25 6.046875 -7 4.9375 -7 C 2.734375 -7 0.5 -4.796875 0.5 -2.5 C 0.5 -0.859375 1.671875 0.21875 3.1875 0.21875 C 4.046875 0.21875 4.796875 -0.171875 5.328125 -0.640625 C 6.25 -1.453125 6.421875 -2.34375 6.421875 -2.375 C 6.421875 -2.484375 6.3125 -2.484375 6.296875 -2.484375 C 6.234375 -2.484375 6.1875 -2.453125 6.171875 -2.375 C 6.078125 -2.09375 5.859375 -1.390625 5.171875 -0.8125 C 4.484375 -0.265625 3.859375 -0.09375 3.34375 -0.09375 C 2.453125 -0.09375 1.40625 -0.609375 1.40625 -2.15625 C 1.40625 -2.71875 1.609375 -4.328125 2.59375 -5.484375 C 3.203125 -6.1875 4.140625 -6.6875 5.015625 -6.6875 C 6.03125 -6.6875 6.625 -5.921875 6.625 -4.765625 C 6.625 -4.375 6.59375 -4.359375 6.59375 -4.265625 C 6.59375 -4.171875 6.703125 -4.171875 6.734375 -4.171875 C 6.859375 -4.171875 6.859375 -4.1875 6.921875 -4.359375 Z M 7.546875 -6.890625 "/>
</g>
<g id="glyph-0-1">
<path d="M 7.34375 -4.328125 C 7.34375 -5.921875 6.296875 -7 4.8125 -7 C 2.671875 -7 0.484375 -4.75 0.484375 -2.4375 C 0.484375 -0.78125 1.59375 0.21875 3.03125 0.21875 C 5.125 0.21875 7.34375 -1.953125 7.34375 -4.328125 Z M 3.078125 -0.046875 C 2.109375 -0.046875 1.40625 -0.84375 1.40625 -2.15625 C 1.40625 -2.59375 1.546875 -4.03125 2.3125 -5.203125 C 3 -6.234375 3.96875 -6.75 4.75 -6.75 C 5.5625 -6.75 6.453125 -6.1875 6.453125 -4.71875 C 6.453125 -4 6.1875 -2.453125 5.203125 -1.234375 C 4.734375 -0.625 3.921875 -0.046875 3.078125 -0.046875 Z M 3.078125 -0.046875 "/>
</g>
<g id="glyph-0-2">
<path d="M 3.46875 -0.5625 C 3.578125 -0.15625 3.921875 0.109375 4.359375 0.109375 C 4.703125 0.109375 4.9375 -0.125 5.09375 -0.4375 C 5.265625 -0.796875 5.390625 -1.40625 5.390625 -1.421875 C 5.390625 -1.515625 5.296875 -1.515625 5.265625 -1.515625 C 5.171875 -1.515625 5.15625 -1.484375 5.125 -1.34375 C 4.984375 -0.78125 4.796875 -0.109375 4.390625 -0.109375 C 4.171875 -0.109375 4.078125 -0.234375 4.078125 -0.5625 C 4.078125 -0.78125 4.203125 -1.25 4.28125 -1.59375 L 4.546875 -2.671875 C 4.578125 -2.8125 4.6875 -3.1875 4.71875 -3.34375 C 4.765625 -3.578125 4.875 -3.953125 4.875 -4.015625 C 4.875 -4.1875 4.734375 -4.28125 4.578125 -4.28125 C 4.53125 -4.28125 4.28125 -4.265625 4.203125 -3.921875 C 4.015625 -3.203125 3.578125 -1.46875 3.453125 -0.9375 C 3.4375 -0.90625 3.046875 -0.109375 2.328125 -0.109375 C 1.8125 -0.109375 1.703125 -0.5625 1.703125 -0.921875 C 1.703125 -1.484375 1.984375 -2.265625 2.25 -2.953125 C 2.359375 -3.25 2.40625 -3.390625 2.40625 -3.578125 C 2.40625 -4.015625 2.09375 -4.390625 1.59375 -4.390625 C 0.65625 -4.390625 0.28125 -2.953125 0.28125 -2.859375 C 0.28125 -2.765625 0.390625 -2.765625 0.40625 -2.765625 C 0.5 -2.765625 0.515625 -2.78125 0.5625 -2.9375 C 0.8125 -3.796875 1.1875 -4.171875 1.5625 -4.171875 C 1.65625 -4.171875 1.8125 -4.15625 1.8125 -3.84375 C 1.8125 -3.609375 1.703125 -3.3125 1.640625 -3.171875 C 1.28125 -2.1875 1.078125 -1.5625 1.078125 -1.078125 C 1.078125 -0.140625 1.75 0.109375 2.296875 0.109375 C 2.953125 0.109375 3.296875 -0.34375 3.46875 -0.5625 Z M 3.46875 -0.5625 "/>
</g>
<g id="glyph-0-3">
<path d="M 7.03125 -2.3125 C 7.046875 -2.359375 7.078125 -2.4375 7.078125 -2.453125 C 7.078125 -2.453125 7.078125 -2.5625 6.953125 -2.5625 C 6.859375 -2.5625 6.84375 -2.5 6.828125 -2.4375 C 6.1875 -0.96875 5.8125 -0.3125 4.125 -0.3125 L 2.671875 -0.3125 C 2.53125 -0.3125 2.515625 -0.3125 2.453125 -0.3125 C 2.34375 -0.328125 2.328125 -0.34375 2.328125 -0.421875 C 2.328125 -0.453125 2.328125 -0.46875 2.375 -0.640625 L 3.046875 -3.359375 L 4.03125 -3.359375 C 4.875 -3.359375 4.875 -3.140625 4.875 -2.890625 C 4.875 -2.828125 4.875 -2.703125 4.796875 -2.40625 C 4.78125 -2.359375 4.765625 -2.328125 4.765625 -2.296875 C 4.765625 -2.25 4.8125 -2.1875 4.90625 -2.1875 C 4.984375 -2.1875 5.015625 -2.25 5.046875 -2.390625 L 5.609375 -4.71875 C 5.609375 -4.765625 5.5625 -4.828125 5.5 -4.828125 C 5.40625 -4.828125 5.390625 -4.765625 5.359375 -4.640625 C 5.15625 -3.890625 4.96875 -3.65625 4.0625 -3.65625 L 3.125 -3.65625 L 3.71875 -6.046875 C 3.8125 -6.40625 3.8125 -6.4375 4.25 -6.4375 L 5.65625 -6.4375 C 6.859375 -6.4375 7.15625 -6.15625 7.15625 -5.34375 C 7.15625 -5.09375 7.15625 -5.078125 7.125 -4.8125 C 7.125 -4.75 7.109375 -4.6875 7.109375 -4.640625 C 7.109375 -4.578125 7.140625 -4.515625 7.234375 -4.515625 C 7.34375 -4.515625 7.359375 -4.578125 7.375 -4.765625 L 7.578125 -6.484375 C 7.59375 -6.75 7.546875 -6.75 7.296875 -6.75 L 2.296875 -6.75 C 2.09375 -6.75 2 -6.75 2 -6.546875 C 2 -6.4375 2.078125 -6.4375 2.265625 -6.4375 C 2.640625 -6.4375 2.921875 -6.4375 2.921875 -6.265625 C 2.921875 -6.21875 2.921875 -6.203125 2.875 -6.015625 L 1.5625 -0.78125 C 1.453125 -0.390625 1.4375 -0.3125 0.65625 -0.3125 C 0.484375 -0.3125 0.375 -0.3125 0.375 -0.125 C 0.375 0 0.46875 0 0.65625 0 L 5.796875 0 C 6.03125 0 6.046875 -0.015625 6.109375 -0.171875 Z M 7.03125 -2.3125 "/>
</g>
<g id="glyph-0-4">
<path d="M 3.703125 -6.015625 C 3.796875 -6.375 3.828125 -6.46875 4.609375 -6.46875 C 4.859375 -6.46875 4.9375 -6.46875 4.9375 -6.65625 C 4.9375 -6.78125 4.828125 -6.78125 4.78125 -6.78125 C 4.5 -6.78125 3.765625 -6.75 3.46875 -6.75 C 3.171875 -6.75 2.453125 -6.78125 2.15625 -6.78125 C 2.078125 -6.78125 1.953125 -6.78125 1.953125 -6.578125 C 1.953125 -6.46875 2.046875 -6.46875 2.234375 -6.46875 C 2.65625 -6.46875 2.921875 -6.46875 2.921875 -6.28125 C 2.921875 -6.234375 2.921875 -6.21875 2.890625 -6.125 L 1.5625 -0.78125 C 1.46875 -0.40625 1.4375 -0.3125 0.65625 -0.3125 C 0.421875 -0.3125 0.34375 -0.3125 0.34375 -0.109375 C 0.34375 0 0.453125 0 0.484375 0 C 0.78125 0 1.5 -0.03125 1.78125 -0.03125 C 2.078125 -0.03125 2.8125 0 3.109375 0 C 3.1875 0 3.3125 0 3.3125 -0.1875 C 3.3125 -0.3125 3.234375 -0.3125 3.015625 -0.3125 C 2.84375 -0.3125 2.78125 -0.3125 2.59375 -0.328125 C 2.375 -0.34375 2.34375 -0.390625 2.34375 -0.5 C 2.34375 -0.578125 2.359375 -0.65625 2.375 -0.71875 Z M 3.703125 -6.015625 "/>
</g>
<g id="glyph-1-0">
<path d="M 3.578125 -2.21875 C 3.578125 -2.96875 3.484375 -3.53125 3.171875 -4.015625 C 2.953125 -4.328125 2.53125 -4.609375 1.96875 -4.609375 C 0.359375 -4.609375 0.359375 -2.71875 0.359375 -2.21875 C 0.359375 -1.71875 0.359375 0.140625 1.96875 0.140625 C 3.578125 0.140625 3.578125 -1.71875 3.578125 -2.21875 Z M 1.96875 -0.0625 C 1.65625 -0.0625 1.234375 -0.25 1.09375 -0.8125 C 0.984375 -1.21875 0.984375 -1.796875 0.984375 -2.296875 C 0.984375 -2.8125 0.984375 -3.34375 1.09375 -3.71875 C 1.234375 -4.265625 1.6875 -4.40625 1.96875 -4.40625 C 2.34375 -4.40625 2.703125 -4.1875 2.828125 -3.78125 C 2.9375 -3.40625 2.953125 -2.90625 2.953125 -2.296875 C 2.953125 -1.796875 2.953125 -1.28125 2.859375 -0.84375 C 2.71875 -0.203125 2.25 -0.0625 1.96875 -0.0625 Z M 1.96875 -0.0625 "/>
</g>
<g id="glyph-1-1">
<path d="M 2.328125 -4.40625 C 2.328125 -4.59375 2.3125 -4.609375 2.109375 -4.609375 C 1.671875 -4.171875 1.046875 -4.15625 0.75 -4.15625 L 0.75 -3.90625 C 0.921875 -3.90625 1.375 -3.90625 1.765625 -4.109375 L 1.765625 -0.5625 C 1.765625 -0.34375 1.765625 -0.25 1.0625 -0.25 L 0.8125 -0.25 L 0.8125 0 C 0.921875 0 1.78125 -0.03125 2.046875 -0.03125 C 2.25 -0.03125 3.125 0 3.28125 0 L 3.28125 -0.25 L 3.015625 -0.25 C 2.328125 -0.25 2.328125 -0.34375 2.328125 -0.5625 Z M 2.328125 -4.40625 "/>
</g>
</g>
<clipPath id="clip-0">
<path clip-rule="nonzero" d="M 1 0.214844 L 28 0.214844 L 28 25 L 1 25 Z M 1 0.214844 "/>
</clipPath>
<clipPath id="clip-1">
<path clip-rule="nonzero" d="M 166 163 L 191.421875 163 L 191.421875 190 L 166 190 Z M 166 163 "/>
</clipPath>
<clipPath id="clip-2">
<path clip-rule="nonzero" d="M 0 18 L 152 18 L 152 190.085938 L 0 190.085938 Z M 0 18 "/>
</clipPath>
</defs>
<path fill="none" stroke-width="0.79701" stroke-linecap="butt" stroke-linejoin="miter" stroke="rgb(0%, 0%, 0%)" stroke-opacity="1" stroke-miterlimit="10" d="M 0.000380677 163.903606 L 0.000380677 -0.00167653 L 163.905663 -0.00167653 " transform="matrix(0.995907, 0, 0, -0.995907, 14.812121, 176.295205)"/>
<path fill-rule="nonzero" fill="rgb(0%, 0%, 0%)" fill-opacity="1" d="M 14.8125 8.546875 C 14.675781 9.101562 13.894531 11.539062 13.046875 13.0625 L 16.578125 13.0625 C 15.730469 11.539062 14.949219 9.101562 14.8125 8.546875 Z M 14.8125 8.546875 "/>
<g clip-path="url(#clip-0)">
<path fill="none" stroke-width="0.79701" stroke-linecap="butt" stroke-linejoin="miter" stroke="rgb(0%, 0%, 0%)" stroke-opacity="1" stroke-miterlimit="10" d="M 4.533871 -0.000380677 C 3.976903 0.1369 1.529385 0.921361 -0.000313892 1.772501 L -0.000313892 -1.773263 C 1.529385 -0.922122 3.976903 -0.137661 4.533871 -0.000380677 Z M 4.533871 -0.000380677 " transform="matrix(0, -0.995907, -0.995907, 0, 14.812121, 13.062187)"/>
</g>
<path fill-rule="nonzero" fill="rgb(0%, 0%, 0%)" fill-opacity="1" d="M 182.558594 176.296875 C 182.007812 176.15625 179.570312 175.378906 178.046875 174.53125 L 178.046875 178.058594 C 179.570312 177.210938 182.007812 176.433594 182.558594 176.296875 Z M 182.558594 176.296875 "/>
<g clip-path="url(#clip-1)">
<path fill="none" stroke-width="0.79701" stroke-linecap="butt" stroke-linejoin="miter" stroke="rgb(0%, 0%, 0%)" stroke-opacity="1" stroke-miterlimit="10" d="M 4.532006 -0.00167653 C 3.978961 0.139526 1.531442 0.920065 0.00174331 1.771205 L 0.00174331 -1.770636 C 1.531442 -0.919496 3.978961 -0.138957 4.532006 -0.00167653 Z M 4.532006 -0.00167653 " transform="matrix(0.995907, 0, 0, -0.995907, 178.045139, 176.295205)"/>
</g>
<g fill="rgb(0%, 0%, 0%)" fill-opacity="1">
<use xlink:href="#glyph-0-0" x="3.307406" y="10.30245"/>
</g>
<g fill="rgb(0%, 0%, 0%)" fill-opacity="1">
<use xlink:href="#glyph-0-1" x="180.272066" y="186.77812"/>
</g>
<g clip-path="url(#clip-2)">
<path fill="none" stroke-width="1.19553" stroke-linecap="butt" stroke-linejoin="miter" stroke="rgb(0%, 39.99939%, 64.99939%)" stroke-opacity="1" stroke-miterlimit="10" d="M 0.000380677 141.734738 L 120.47398 21.261139 L 120.47398 -0.00167653 " transform="matrix(0.995907, 0, 0, -0.995907, 14.812121, 176.295205)"/>
</g>
<path fill="none" stroke-width="1.19553" stroke-linecap="butt" stroke-linejoin="miter" stroke="rgb(0%, 39.99939%, 64.99939%)" stroke-opacity="1" stroke-miterlimit="10" d="M 0.000380677 70.866531 L 42.52209 63.778926 L 85.039876 45.355859 L 120.47398 21.261139 " transform="matrix(0.995907, 0, 0, -0.995907, 14.812121, 176.295205)"/>
<path fill-rule="nonzero" fill="rgb(0%, 39.99939%, 64.99939%)" fill-opacity="1" stroke-width="0.79701" stroke-linecap="butt" stroke-linejoin="miter" stroke="rgb(0%, 0%, 0%)" stroke-opacity="1" stroke-miterlimit="10" d="M 44.51462 63.778926 C 44.51462 64.881093 43.620335 65.771457 42.52209 65.771457 C 41.419922 65.771457 40.529559 64.881093 40.529559 63.778926 C 40.529559 62.68068 41.419922 61.786395 42.52209 61.786395 C 43.620335 61.786395 44.51462 62.68068 44.51462 63.778926 Z M 44.51462 63.778926 " transform="matrix(0.995907, 0, 0, -0.995907, 14.812121, 176.295205)"/>
<path fill-rule="nonzero" fill="rgb(0%, 39.99939%, 64.99939%)" fill-opacity="1" stroke-width="0.79701" stroke-linecap="butt" stroke-linejoin="miter" stroke="rgb(0%, 0%, 0%)" stroke-opacity="1" stroke-miterlimit="10" d="M 87.032407 45.355859 C 87.032407 46.454104 86.142044 47.34839 85.039876 47.34839 C 83.941631 47.34839 83.047345 46.454104 83.047345 45.355859 C 83.047345 44.253691 83.941631 43.363328 85.039876 43.363328 C 86.142044 43.363328 87.032407 44.253691 87.032407 45.355859 Z M 87.032407 45.355859 " transform="matrix(0.995907, 0, 0, -0.995907, 14.812121, 176.295205)"/>
<path fill="none" stroke-width="1.19553" stroke-linecap="butt" stroke-linejoin="miter" stroke="rgb(0%, 79.998779%, 59.999084%)" stroke-opacity="1" stroke-miterlimit="10" d="M 27.629097 156.196277 C 27.629097 126.10043 35.414873 106.320246 56.693378 85.041741 C 77.975805 63.759314 97.755989 55.977461 127.851835 55.977461 " transform="matrix(0.995907, 0, 0, -0.995907, 14.812121, 176.295205)"/>
<g fill="rgb(0%, 0%, 0%)" fill-opacity="1">
<use xlink:href="#glyph-0-2" x="146.039764" y="121.940608"/>
</g>
<g fill="rgb(0%, 0%, 0%)" fill-opacity="1">
<use xlink:href="#glyph-1-0" x="151.71942" y="123.428492"/>
</g>
<path fill="none" stroke-width="1.19553" stroke-linecap="butt" stroke-linejoin="miter" stroke="rgb(0%, 79.998779%, 59.999084%)" stroke-opacity="1" stroke-miterlimit="10" d="M 15.156167 143.723347 C 15.156167 113.631423 22.941943 93.847316 44.220448 72.568811 C 65.502875 51.286384 85.283059 43.504531 115.378905 43.504531 " transform="matrix(0.995907, 0, 0, -0.995907, 14.812121, 176.295205)"/>
<g fill="rgb(0%, 0%, 0%)" fill-opacity="1">
<use xlink:href="#glyph-0-2" x="133.618815" y="134.361556"/>
</g>
<g fill="rgb(0%, 0%, 0%)" fill-opacity="1">
<use xlink:href="#glyph-1-1" x="139.298471" y="135.849441"/>
</g>
<path fill-rule="nonzero" fill="rgb(0%, 0%, 0%)" fill-opacity="1" stroke-width="0.3985" stroke-linecap="butt" stroke-linejoin="miter" stroke="rgb(0%, 0%, 0%)" stroke-opacity="1" stroke-miterlimit="10" d="M 58.685909 85.041741 C 58.685909 86.139987 57.795545 87.034272 56.693378 87.034272 C 55.59121 87.034272 54.700847 86.139987 54.700847 85.041741 C 54.700847 83.939573 55.59121 83.04921 56.693378 83.04921 C 57.795545 83.04921 58.685909 83.939573 58.685909 85.041741 Z M 58.685909 85.041741 " transform="matrix(0.995907, 0, 0, -0.995907, 14.812121, 176.295205)"/>
<g fill="rgb(0%, 0%, 0%)" fill-opacity="1">
<use xlink:href="#glyph-0-3" x="74.777657" y="86.60982"/>
</g>
<g fill="rgb(0%, 0%, 0%)" fill-opacity="1">
<use xlink:href="#glyph-1-0" x="82.102551" y="88.098701"/>
</g>
<path fill-rule="nonzero" fill="rgb(0%, 0%, 0%)" fill-opacity="1" stroke-width="0.3985" stroke-linecap="butt" stroke-linejoin="miter" stroke="rgb(0%, 0%, 0%)" stroke-opacity="1" stroke-miterlimit="10" d="M 72.861119 52.157136 C 72.861119 53.259303 71.966833 54.149667 70.868588 54.149667 C 69.76642 54.149667 68.876057 53.259303 68.876057 52.157136 C 68.876057 51.05889 69.76642 50.164605 70.868588 50.164605 C 71.966833 50.164605 72.861119 51.05889 72.861119 52.157136 Z M 72.861119 52.157136 " transform="matrix(0.995907, 0, 0, -0.995907, 14.812121, 176.295205)"/>
<g fill="rgb(0%, 0%, 0%)" fill-opacity="1">
<use xlink:href="#glyph-0-3" x="70.106855" y="134.636427"/>
</g>
<g fill="rgb(0%, 0%, 0%)" fill-opacity="1">
<use xlink:href="#glyph-1-1" x="77.431749" y="136.124311"/>
</g>
<path fill="none" stroke-width="0.3985" stroke-linecap="butt" stroke-linejoin="miter" stroke="rgb(0%, 0%, 0%)" stroke-opacity="1" stroke-dasharray="2.98883 2.98883" stroke-miterlimit="10" d="M 0.000380677 21.261139 L 120.47398 21.261139 " transform="matrix(0.995907, 0, 0, -0.995907, 14.812121, 176.295205)"/>
<g fill="rgb(0%, 0%, 0%)" fill-opacity="1">
<use xlink:href="#glyph-0-4" x="6.166655" y="158.512295"/>
</g>
</svg>
